<mxfile host="app.diagrams.net" modified="2021-06-16T21:00:21.906Z" agent="5.0 (Windows NT 6.3; Win64; x64) AppleWebKit/537.36 (KHTML, like Gecko) Chrome/91.0.4472.101 Safari/537.36" etag="ix_nwGvsXXURslXpGt3S" version="14.7.10" type="github">
  <diagram name="Page-1" id="6133507b-19e7-1e82-6fc7-422aa6c4b21f">
    <mxGraphModel dx="2121" dy="2329" grid="1" gridSize="10" guides="1" tooltips="1" connect="1" arrows="1" fold="1" page="1" pageScale="1" pageWidth="1100" pageHeight="850" background="none" math="0" shadow="0">
      <root>
        <mxCell id="0" />
        <mxCell id="1" parent="0" />
        <mxCell id="jMFiFp2JRC3NRYyeH_Bl-177" value="" style="group" parent="1" vertex="1" connectable="0">
          <mxGeometry x="330" y="380" width="700" height="467" as="geometry" />
        </mxCell>
        <mxCell id="jMFiFp2JRC3NRYyeH_Bl-175" value="" style="rounded=1;whiteSpace=wrap;html=1;fontSize=18;strokeWidth=2;" parent="jMFiFp2JRC3NRYyeH_Bl-177" vertex="1">
          <mxGeometry y="93" width="700" height="440" as="geometry" />
        </mxCell>
        <mxCell id="jMFiFp2JRC3NRYyeH_Bl-176" value="Talents" style="text;html=1;strokeColor=none;fillColor=none;align=center;verticalAlign=middle;whiteSpace=wrap;rounded=0;fontSize=18;" parent="jMFiFp2JRC3NRYyeH_Bl-177" vertex="1">
          <mxGeometry x="330" y="100" width="40" height="20" as="geometry" />
        </mxCell>
        <mxCell id="jMFiFp2JRC3NRYyeH_Bl-165" value="TimeSheet" style="swimlane;html=1;fontStyle=1;align=center;verticalAlign=top;childLayout=stackLayout;horizontal=1;startSize=26;horizontalStack=0;resizeParent=1;resizeLast=0;collapsible=1;marginBottom=0;swimlaneFillColor=#ffffff;rounded=0;shadow=0;comic=0;labelBackgroundColor=none;strokeWidth=1;fillColor=none;fontFamily=Verdana;fontSize=12" parent="jMFiFp2JRC3NRYyeH_Bl-177" vertex="1">
          <mxGeometry x="35" y="167" width="160" height="242" as="geometry">
            <mxRectangle x="35" y="167" width="100" height="26" as="alternateBounds" />
          </mxGeometry>
        </mxCell>
        <mxCell id="jMFiFp2JRC3NRYyeH_Bl-166" value="+ field: user" style="text;html=1;strokeColor=none;fillColor=none;align=left;verticalAlign=top;spacingLeft=2;spacingRight=1;whiteSpace=wrap;overflow=hidden;rotatable=0;points=[[0,0.5],[1,0.5]];portConstraint=eastwest;" parent="jMFiFp2JRC3NRYyeH_Bl-165" vertex="1">
          <mxGeometry y="26" width="160" height="26" as="geometry" />
        </mxCell>
        <mxCell id="jMFiFp2JRC3NRYyeH_Bl-167" value="+ field: day" style="text;html=1;strokeColor=none;fillColor=none;align=left;verticalAlign=top;spacingLeft=2;spacingRight=1;whiteSpace=wrap;overflow=hidden;rotatable=0;points=[[0,0.5],[1,0.5]];portConstraint=eastwest;" parent="jMFiFp2JRC3NRYyeH_Bl-165" vertex="1">
          <mxGeometry y="52" width="160" height="26" as="geometry" />
        </mxCell>
        <mxCell id="jMFiFp2JRC3NRYyeH_Bl-168" value="+ field: first" style="text;html=1;strokeColor=none;fillColor=none;align=left;verticalAlign=top;spacingLeft=2;spacingRight=1;whiteSpace=wrap;overflow=hidden;rotatable=0;points=[[0,0.5],[1,0.5]];portConstraint=eastwest;" parent="jMFiFp2JRC3NRYyeH_Bl-165" vertex="1">
          <mxGeometry y="78" width="160" height="26" as="geometry" />
        </mxCell>
        <mxCell id="jMFiFp2JRC3NRYyeH_Bl-169" value="+ field: second" style="text;html=1;strokeColor=none;fillColor=none;align=left;verticalAlign=top;spacingLeft=2;spacingRight=1;whiteSpace=wrap;overflow=hidden;rotatable=0;points=[[0,0.5],[1,0.5]];portConstraint=eastwest;" parent="jMFiFp2JRC3NRYyeH_Bl-165" vertex="1">
          <mxGeometry y="104" width="160" height="26" as="geometry" />
        </mxCell>
        <mxCell id="jMFiFp2JRC3NRYyeH_Bl-170" value="+ field: third" style="text;html=1;strokeColor=none;fillColor=none;align=left;verticalAlign=top;spacingLeft=2;spacingRight=1;whiteSpace=wrap;overflow=hidden;rotatable=0;points=[[0,0.5],[1,0.5]];portConstraint=eastwest;" parent="jMFiFp2JRC3NRYyeH_Bl-165" vertex="1">
          <mxGeometry y="130" width="160" height="26" as="geometry" />
        </mxCell>
        <mxCell id="jMFiFp2JRC3NRYyeH_Bl-173" value="+ field: fourth" style="text;html=1;strokeColor=none;fillColor=none;align=left;verticalAlign=top;spacingLeft=2;spacingRight=1;whiteSpace=wrap;overflow=hidden;rotatable=0;points=[[0,0.5],[1,0.5]];portConstraint=eastwest;" parent="jMFiFp2JRC3NRYyeH_Bl-165" vertex="1">
          <mxGeometry y="156" width="160" height="26" as="geometry" />
        </mxCell>
        <mxCell id="jMFiFp2JRC3NRYyeH_Bl-174" value="+ field: total_hours" style="text;html=1;strokeColor=none;fillColor=none;align=left;verticalAlign=top;spacingLeft=2;spacingRight=1;whiteSpace=wrap;overflow=hidden;rotatable=0;points=[[0,0.5],[1,0.5]];portConstraint=eastwest;" parent="jMFiFp2JRC3NRYyeH_Bl-165" vertex="1">
          <mxGeometry y="182" width="160" height="26" as="geometry" />
        </mxCell>
        <mxCell id="jMFiFp2JRC3NRYyeH_Bl-171" value="" style="line;html=1;strokeWidth=1;fillColor=none;align=left;verticalAlign=middle;spacingTop=-1;spacingLeft=3;spacingRight=3;rotatable=0;labelPosition=right;points=[];portConstraint=eastwest;" parent="jMFiFp2JRC3NRYyeH_Bl-165" vertex="1">
          <mxGeometry y="208" width="160" height="8" as="geometry" />
        </mxCell>
        <mxCell id="jMFiFp2JRC3NRYyeH_Bl-172" value="+ method(type): type" style="text;html=1;strokeColor=none;fillColor=none;align=left;verticalAlign=top;spacingLeft=4;spacingRight=4;whiteSpace=wrap;overflow=hidden;rotatable=0;points=[[0,0.5],[1,0.5]];portConstraint=eastwest;" parent="jMFiFp2JRC3NRYyeH_Bl-165" vertex="1">
          <mxGeometry y="216" width="160" height="26" as="geometry" />
        </mxCell>
        <mxCell id="jMFiFp2JRC3NRYyeH_Bl-150" value="DocumentTypes" style="swimlane;html=1;fontStyle=1;align=center;verticalAlign=top;childLayout=stackLayout;horizontal=1;startSize=26;horizontalStack=0;resizeParent=1;resizeLast=0;collapsible=1;marginBottom=0;swimlaneFillColor=#ffffff;rounded=0;shadow=0;comic=0;labelBackgroundColor=none;strokeWidth=1;fillColor=none;fontFamily=Verdana;fontSize=12" parent="jMFiFp2JRC3NRYyeH_Bl-177" vertex="1">
          <mxGeometry x="275" y="167" width="160" height="86" as="geometry">
            <mxRectangle x="275" y="167" width="140" height="26" as="alternateBounds" />
          </mxGeometry>
        </mxCell>
        <mxCell id="jMFiFp2JRC3NRYyeH_Bl-151" value="+ field: document_type" style="text;html=1;strokeColor=none;fillColor=none;align=left;verticalAlign=top;spacingLeft=2;spacingRight=1;whiteSpace=wrap;overflow=hidden;rotatable=0;points=[[0,0.5],[1,0.5]];portConstraint=eastwest;" parent="jMFiFp2JRC3NRYyeH_Bl-150" vertex="1">
          <mxGeometry y="26" width="160" height="26" as="geometry" />
        </mxCell>
        <mxCell id="jMFiFp2JRC3NRYyeH_Bl-155" value="" style="line;html=1;strokeWidth=1;fillColor=none;align=left;verticalAlign=middle;spacingTop=-1;spacingLeft=3;spacingRight=3;rotatable=0;labelPosition=right;points=[];portConstraint=eastwest;" parent="jMFiFp2JRC3NRYyeH_Bl-150" vertex="1">
          <mxGeometry y="52" width="160" height="8" as="geometry" />
        </mxCell>
        <mxCell id="jMFiFp2JRC3NRYyeH_Bl-156" value="+ method(type): type" style="text;html=1;strokeColor=none;fillColor=none;align=left;verticalAlign=top;spacingLeft=4;spacingRight=4;whiteSpace=wrap;overflow=hidden;rotatable=0;points=[[0,0.5],[1,0.5]];portConstraint=eastwest;" parent="jMFiFp2JRC3NRYyeH_Bl-150" vertex="1">
          <mxGeometry y="60" width="160" height="26" as="geometry" />
        </mxCell>
        <mxCell id="jMFiFp2JRC3NRYyeH_Bl-157" value="Documents" style="swimlane;html=1;fontStyle=1;align=center;verticalAlign=top;childLayout=stackLayout;horizontal=1;startSize=26;horizontalStack=0;resizeParent=1;resizeLast=0;collapsible=1;marginBottom=0;swimlaneFillColor=#ffffff;rounded=0;shadow=0;comic=0;labelBackgroundColor=none;strokeWidth=1;fillColor=none;fontFamily=Verdana;fontSize=12" parent="jMFiFp2JRC3NRYyeH_Bl-177" vertex="1">
          <mxGeometry x="275" y="277" width="160" height="190" as="geometry">
            <mxRectangle x="275" y="277" width="110" height="26" as="alternateBounds" />
          </mxGeometry>
        </mxCell>
        <mxCell id="jMFiFp2JRC3NRYyeH_Bl-162" value="+ field: tipo" style="text;html=1;strokeColor=none;fillColor=none;align=left;verticalAlign=top;spacingLeft=2;spacingRight=1;whiteSpace=wrap;overflow=hidden;rotatable=0;points=[[0,0.5],[1,0.5]];portConstraint=eastwest;" parent="jMFiFp2JRC3NRYyeH_Bl-157" vertex="1">
          <mxGeometry y="26" width="160" height="26" as="geometry" />
        </mxCell>
        <mxCell id="jMFiFp2JRC3NRYyeH_Bl-158" value="+ field: username" style="text;html=1;strokeColor=none;fillColor=none;align=left;verticalAlign=top;spacingLeft=2;spacingRight=1;whiteSpace=wrap;overflow=hidden;rotatable=0;points=[[0,0.5],[1,0.5]];portConstraint=eastwest;" parent="jMFiFp2JRC3NRYyeH_Bl-157" vertex="1">
          <mxGeometry y="52" width="160" height="26" as="geometry" />
        </mxCell>
        <mxCell id="jMFiFp2JRC3NRYyeH_Bl-163" value="+ field: data" style="text;html=1;strokeColor=none;fillColor=none;align=left;verticalAlign=top;spacingLeft=2;spacingRight=1;whiteSpace=wrap;overflow=hidden;rotatable=0;points=[[0,0.5],[1,0.5]];portConstraint=eastwest;" parent="jMFiFp2JRC3NRYyeH_Bl-157" vertex="1">
          <mxGeometry y="78" width="160" height="26" as="geometry" />
        </mxCell>
        <mxCell id="jMFiFp2JRC3NRYyeH_Bl-164" value="+ field: observacoes" style="text;html=1;strokeColor=none;fillColor=none;align=left;verticalAlign=top;spacingLeft=2;spacingRight=1;whiteSpace=wrap;overflow=hidden;rotatable=0;points=[[0,0.5],[1,0.5]];portConstraint=eastwest;" parent="jMFiFp2JRC3NRYyeH_Bl-157" vertex="1">
          <mxGeometry y="104" width="160" height="26" as="geometry" />
        </mxCell>
        <mxCell id="jMFiFp2JRC3NRYyeH_Bl-161" value="+ field: anexo" style="text;html=1;strokeColor=none;fillColor=none;align=left;verticalAlign=top;spacingLeft=2;spacingRight=1;whiteSpace=wrap;overflow=hidden;rotatable=0;points=[[0,0.5],[1,0.5]];portConstraint=eastwest;" parent="jMFiFp2JRC3NRYyeH_Bl-157" vertex="1">
          <mxGeometry y="130" width="160" height="26" as="geometry" />
        </mxCell>
        <mxCell id="jMFiFp2JRC3NRYyeH_Bl-159" value="" style="line;html=1;strokeWidth=1;fillColor=none;align=left;verticalAlign=middle;spacingTop=-1;spacingLeft=3;spacingRight=3;rotatable=0;labelPosition=right;points=[];portConstraint=eastwest;" parent="jMFiFp2JRC3NRYyeH_Bl-157" vertex="1">
          <mxGeometry y="156" width="160" height="8" as="geometry" />
        </mxCell>
        <mxCell id="jMFiFp2JRC3NRYyeH_Bl-160" value="+ method(type): type" style="text;html=1;strokeColor=none;fillColor=none;align=left;verticalAlign=top;spacingLeft=4;spacingRight=4;whiteSpace=wrap;overflow=hidden;rotatable=0;points=[[0,0.5],[1,0.5]];portConstraint=eastwest;" parent="jMFiFp2JRC3NRYyeH_Bl-157" vertex="1">
          <mxGeometry y="164" width="160" height="26" as="geometry" />
        </mxCell>
        <mxCell id="jMFiFp2JRC3NRYyeH_Bl-123" value="NewPoint" style="swimlane;html=1;fontStyle=1;align=center;verticalAlign=top;childLayout=stackLayout;horizontal=1;startSize=26;horizontalStack=0;resizeParent=1;resizeLast=0;collapsible=1;marginBottom=0;swimlaneFillColor=#ffffff;rounded=0;shadow=0;comic=0;labelBackgroundColor=none;strokeWidth=1;fillColor=none;fontFamily=Verdana;fontSize=12" parent="jMFiFp2JRC3NRYyeH_Bl-177" vertex="1">
          <mxGeometry x="515" y="167" width="160" height="268" as="geometry">
            <mxRectangle x="515" y="167" width="100" height="26" as="alternateBounds" />
          </mxGeometry>
        </mxCell>
        <mxCell id="jMFiFp2JRC3NRYyeH_Bl-124" value="+ field: user" style="text;html=1;strokeColor=none;fillColor=none;align=left;verticalAlign=top;spacingLeft=2;spacingRight=1;whiteSpace=wrap;overflow=hidden;rotatable=0;points=[[0,0.5],[1,0.5]];portConstraint=eastwest;" parent="jMFiFp2JRC3NRYyeH_Bl-123" vertex="1">
          <mxGeometry y="26" width="160" height="26" as="geometry" />
        </mxCell>
        <mxCell id="jMFiFp2JRC3NRYyeH_Bl-125" value="+ field: datanow" style="text;html=1;strokeColor=none;fillColor=none;align=left;verticalAlign=top;spacingLeft=2;spacingRight=1;whiteSpace=wrap;overflow=hidden;rotatable=0;points=[[0,0.5],[1,0.5]];portConstraint=eastwest;" parent="jMFiFp2JRC3NRYyeH_Bl-123" vertex="1">
          <mxGeometry y="52" width="160" height="26" as="geometry" />
        </mxCell>
        <mxCell id="jMFiFp2JRC3NRYyeH_Bl-126" value="+ field: timenow" style="text;html=1;strokeColor=none;fillColor=none;align=left;verticalAlign=top;spacingLeft=2;spacingRight=1;whiteSpace=wrap;overflow=hidden;rotatable=0;points=[[0,0.5],[1,0.5]];portConstraint=eastwest;" parent="jMFiFp2JRC3NRYyeH_Bl-123" vertex="1">
          <mxGeometry y="78" width="160" height="26" as="geometry" />
        </mxCell>
        <mxCell id="jMFiFp2JRC3NRYyeH_Bl-127" value="+ field: data" style="text;html=1;strokeColor=none;fillColor=none;align=left;verticalAlign=top;spacingLeft=2;spacingRight=1;whiteSpace=wrap;overflow=hidden;rotatable=0;points=[[0,0.5],[1,0.5]];portConstraint=eastwest;" parent="jMFiFp2JRC3NRYyeH_Bl-123" vertex="1">
          <mxGeometry y="104" width="160" height="26" as="geometry" />
        </mxCell>
        <mxCell id="jMFiFp2JRC3NRYyeH_Bl-128" value="+ field: horario" style="text;html=1;strokeColor=none;fillColor=none;align=left;verticalAlign=top;spacingLeft=2;spacingRight=1;whiteSpace=wrap;overflow=hidden;rotatable=0;points=[[0,0.5],[1,0.5]];portConstraint=eastwest;" parent="jMFiFp2JRC3NRYyeH_Bl-123" vertex="1">
          <mxGeometry y="130" width="160" height="26" as="geometry" />
        </mxCell>
        <mxCell id="jMFiFp2JRC3NRYyeH_Bl-129" value="+ field: observacoes" style="text;html=1;strokeColor=none;fillColor=none;align=left;verticalAlign=top;spacingLeft=2;spacingRight=1;whiteSpace=wrap;overflow=hidden;rotatable=0;points=[[0,0.5],[1,0.5]];portConstraint=eastwest;" parent="jMFiFp2JRC3NRYyeH_Bl-123" vertex="1">
          <mxGeometry y="156" width="160" height="26" as="geometry" />
        </mxCell>
        <mxCell id="jMFiFp2JRC3NRYyeH_Bl-130" value="+ field: to_alter" style="text;html=1;strokeColor=none;fillColor=none;align=left;verticalAlign=top;spacingLeft=2;spacingRight=1;whiteSpace=wrap;overflow=hidden;rotatable=0;points=[[0,0.5],[1,0.5]];portConstraint=eastwest;" parent="jMFiFp2JRC3NRYyeH_Bl-123" vertex="1">
          <mxGeometry y="182" width="160" height="26" as="geometry" />
        </mxCell>
        <mxCell id="jMFiFp2JRC3NRYyeH_Bl-131" value="+ field: to_manual" style="text;html=1;strokeColor=none;fillColor=none;align=left;verticalAlign=top;spacingLeft=2;spacingRight=1;whiteSpace=wrap;overflow=hidden;rotatable=0;points=[[0,0.5],[1,0.5]];portConstraint=eastwest;" parent="jMFiFp2JRC3NRYyeH_Bl-123" vertex="1">
          <mxGeometry y="208" width="160" height="26" as="geometry" />
        </mxCell>
        <mxCell id="jMFiFp2JRC3NRYyeH_Bl-136" value="" style="line;html=1;strokeWidth=1;fillColor=none;align=left;verticalAlign=middle;spacingTop=-1;spacingLeft=3;spacingRight=3;rotatable=0;labelPosition=right;points=[];portConstraint=eastwest;" parent="jMFiFp2JRC3NRYyeH_Bl-123" vertex="1">
          <mxGeometry y="234" width="160" height="8" as="geometry" />
        </mxCell>
        <mxCell id="jMFiFp2JRC3NRYyeH_Bl-137" value="+ method(type): type" style="text;html=1;strokeColor=none;fillColor=none;align=left;verticalAlign=top;spacingLeft=4;spacingRight=4;whiteSpace=wrap;overflow=hidden;rotatable=0;points=[[0,0.5],[1,0.5]];portConstraint=eastwest;" parent="jMFiFp2JRC3NRYyeH_Bl-123" vertex="1">
          <mxGeometry y="242" width="160" height="26" as="geometry" />
        </mxCell>
        <mxCell id="rH244jGWuoNOTUHvpokT-28" style="edgeStyle=orthogonalEdgeStyle;rounded=0;orthogonalLoop=1;jettySize=auto;html=1;exitX=0;exitY=0.5;exitDx=0;exitDy=0;fontSize=27;endArrow=diamondThin;endFill=0;startSize=12;endSize=12;" parent="jMFiFp2JRC3NRYyeH_Bl-177" source="jMFiFp2JRC3NRYyeH_Bl-151" target="jMFiFp2JRC3NRYyeH_Bl-162" edge="1">
          <mxGeometry relative="1" as="geometry">
            <Array as="points">
              <mxPoint x="255" y="206" />
              <mxPoint x="255" y="316" />
            </Array>
          </mxGeometry>
        </mxCell>
        <mxCell id="jMFiFp2JRC3NRYyeH_Bl-8" value="" style="group" parent="1" vertex="1" connectable="0">
          <mxGeometry x="360" y="-410" width="670" height="470" as="geometry" />
        </mxCell>
        <mxCell id="jMFiFp2JRC3NRYyeH_Bl-6" value="" style="rounded=1;whiteSpace=wrap;html=1;strokeWidth=2;" parent="jMFiFp2JRC3NRYyeH_Bl-8" vertex="1">
          <mxGeometry width="670.0000000000001" height="458.25" as="geometry" />
        </mxCell>
        <mxCell id="jMFiFp2JRC3NRYyeH_Bl-7" value="Core" style="text;html=1;strokeColor=none;fillColor=none;align=center;verticalAlign=middle;whiteSpace=wrap;rounded=0;fontSize=18;" parent="jMFiFp2JRC3NRYyeH_Bl-8" vertex="1">
          <mxGeometry x="252.95918367346943" y="5.875" width="136.73469387755102" height="29.375" as="geometry" />
        </mxCell>
        <mxCell id="jMFiFp2JRC3NRYyeH_Bl-1" value="Company" style="swimlane;html=1;fontStyle=1;align=center;verticalAlign=top;childLayout=stackLayout;horizontal=1;startSize=26;horizontalStack=0;resizeParent=1;resizeLast=0;collapsible=1;marginBottom=0;swimlaneFillColor=#ffffff;rounded=0;shadow=0;comic=0;labelBackgroundColor=none;strokeWidth=1;fillColor=none;fontFamily=Verdana;fontSize=12" parent="jMFiFp2JRC3NRYyeH_Bl-8" vertex="1">
          <mxGeometry x="32.95" y="35.25" width="147.05" height="372" as="geometry" />
        </mxCell>
        <mxCell id="jMFiFp2JRC3NRYyeH_Bl-2" value="+ field: Company" style="text;html=1;strokeColor=none;fillColor=none;align=left;verticalAlign=top;spacingLeft=2;spacingRight=1;whiteSpace=wrap;overflow=hidden;rotatable=0;points=[[0,0.5],[1,0.5]];portConstraint=eastwest;" parent="jMFiFp2JRC3NRYyeH_Bl-1" vertex="1">
          <mxGeometry y="26" width="147.05" height="26" as="geometry" />
        </mxCell>
        <mxCell id="jMFiFp2JRC3NRYyeH_Bl-3" value="+ field: cnpj" style="text;html=1;strokeColor=none;fillColor=none;align=left;verticalAlign=top;spacingLeft=2;spacingRight=1;whiteSpace=wrap;overflow=hidden;rotatable=0;points=[[0,0.5],[1,0.5]];portConstraint=eastwest;" parent="jMFiFp2JRC3NRYyeH_Bl-1" vertex="1">
          <mxGeometry y="52" width="147.05" height="26" as="geometry" />
        </mxCell>
        <mxCell id="jMFiFp2JRC3NRYyeH_Bl-10" value="+ field: postal_code" style="text;html=1;strokeColor=none;fillColor=none;align=left;verticalAlign=top;spacingLeft=2;spacingRight=1;whiteSpace=wrap;overflow=hidden;rotatable=0;points=[[0,0.5],[1,0.5]];portConstraint=eastwest;" parent="jMFiFp2JRC3NRYyeH_Bl-1" vertex="1">
          <mxGeometry y="78" width="147.05" height="26" as="geometry" />
        </mxCell>
        <mxCell id="jMFiFp2JRC3NRYyeH_Bl-11" value="+ field: email" style="text;html=1;strokeColor=none;fillColor=none;align=left;verticalAlign=top;spacingLeft=2;spacingRight=1;whiteSpace=wrap;overflow=hidden;rotatable=0;points=[[0,0.5],[1,0.5]];portConstraint=eastwest;" parent="jMFiFp2JRC3NRYyeH_Bl-1" vertex="1">
          <mxGeometry y="104" width="147.05" height="26" as="geometry" />
        </mxCell>
        <mxCell id="jMFiFp2JRC3NRYyeH_Bl-12" value="+ field: address" style="text;html=1;strokeColor=none;fillColor=none;align=left;verticalAlign=top;spacingLeft=2;spacingRight=1;whiteSpace=wrap;overflow=hidden;rotatable=0;points=[[0,0.5],[1,0.5]];portConstraint=eastwest;" parent="jMFiFp2JRC3NRYyeH_Bl-1" vertex="1">
          <mxGeometry y="130" width="147.05" height="26" as="geometry" />
        </mxCell>
        <mxCell id="jMFiFp2JRC3NRYyeH_Bl-13" value="+ field: cell_phone" style="text;html=1;strokeColor=none;fillColor=none;align=left;verticalAlign=top;spacingLeft=2;spacingRight=1;whiteSpace=wrap;overflow=hidden;rotatable=0;points=[[0,0.5],[1,0.5]];portConstraint=eastwest;" parent="jMFiFp2JRC3NRYyeH_Bl-1" vertex="1">
          <mxGeometry y="156" width="147.05" height="26" as="geometry" />
        </mxCell>
        <mxCell id="jMFiFp2JRC3NRYyeH_Bl-14" value="+ field: number" style="text;html=1;strokeColor=none;fillColor=none;align=left;verticalAlign=top;spacingLeft=2;spacingRight=1;whiteSpace=wrap;overflow=hidden;rotatable=0;points=[[0,0.5],[1,0.5]];portConstraint=eastwest;" parent="jMFiFp2JRC3NRYyeH_Bl-1" vertex="1">
          <mxGeometry y="182" width="147.05" height="26" as="geometry" />
        </mxCell>
        <mxCell id="jMFiFp2JRC3NRYyeH_Bl-15" value="+ field: complement" style="text;html=1;strokeColor=none;fillColor=none;align=left;verticalAlign=top;spacingLeft=2;spacingRight=1;whiteSpace=wrap;overflow=hidden;rotatable=0;points=[[0,0.5],[1,0.5]];portConstraint=eastwest;" parent="jMFiFp2JRC3NRYyeH_Bl-1" vertex="1">
          <mxGeometry y="208" width="147.05" height="26" as="geometry" />
        </mxCell>
        <mxCell id="jMFiFp2JRC3NRYyeH_Bl-16" value="+ field: district" style="text;html=1;strokeColor=none;fillColor=none;align=left;verticalAlign=top;spacingLeft=2;spacingRight=1;whiteSpace=wrap;overflow=hidden;rotatable=0;points=[[0,0.5],[1,0.5]];portConstraint=eastwest;" parent="jMFiFp2JRC3NRYyeH_Bl-1" vertex="1">
          <mxGeometry y="234" width="147.05" height="26" as="geometry" />
        </mxCell>
        <mxCell id="jMFiFp2JRC3NRYyeH_Bl-17" value="+ field: state" style="text;html=1;strokeColor=none;fillColor=none;align=left;verticalAlign=top;spacingLeft=2;spacingRight=1;whiteSpace=wrap;overflow=hidden;rotatable=0;points=[[0,0.5],[1,0.5]];portConstraint=eastwest;" parent="jMFiFp2JRC3NRYyeH_Bl-1" vertex="1">
          <mxGeometry y="260" width="147.05" height="26" as="geometry" />
        </mxCell>
        <mxCell id="jMFiFp2JRC3NRYyeH_Bl-18" value="+ field: city" style="text;html=1;strokeColor=none;fillColor=none;align=left;verticalAlign=top;spacingLeft=2;spacingRight=1;whiteSpace=wrap;overflow=hidden;rotatable=0;points=[[0,0.5],[1,0.5]];portConstraint=eastwest;" parent="jMFiFp2JRC3NRYyeH_Bl-1" vertex="1">
          <mxGeometry y="286" width="147.05" height="26" as="geometry" />
        </mxCell>
        <mxCell id="jMFiFp2JRC3NRYyeH_Bl-19" value="+ field: photo_profile" style="text;html=1;strokeColor=none;fillColor=none;align=left;verticalAlign=top;spacingLeft=2;spacingRight=1;whiteSpace=wrap;overflow=hidden;rotatable=0;points=[[0,0.5],[1,0.5]];portConstraint=eastwest;" parent="jMFiFp2JRC3NRYyeH_Bl-1" vertex="1">
          <mxGeometry y="312" width="147.05" height="26" as="geometry" />
        </mxCell>
        <mxCell id="jMFiFp2JRC3NRYyeH_Bl-4" value="" style="line;html=1;strokeWidth=1;fillColor=none;align=left;verticalAlign=middle;spacingTop=-1;spacingLeft=3;spacingRight=3;rotatable=0;labelPosition=right;points=[];portConstraint=eastwest;" parent="jMFiFp2JRC3NRYyeH_Bl-1" vertex="1">
          <mxGeometry y="338" width="147.05" height="8" as="geometry" />
        </mxCell>
        <mxCell id="jMFiFp2JRC3NRYyeH_Bl-5" value="+ method(type): type" style="text;html=1;strokeColor=none;fillColor=none;align=left;verticalAlign=top;spacingLeft=4;spacingRight=4;whiteSpace=wrap;overflow=hidden;rotatable=0;points=[[0,0.5],[1,0.5]];portConstraint=eastwest;" parent="jMFiFp2JRC3NRYyeH_Bl-1" vertex="1">
          <mxGeometry y="346" width="147.05" height="26" as="geometry" />
        </mxCell>
        <mxCell id="jMFiFp2JRC3NRYyeH_Bl-36" value="Project" style="swimlane;html=1;fontStyle=1;align=center;verticalAlign=top;childLayout=stackLayout;horizontal=1;startSize=26;horizontalStack=0;resizeParent=1;resizeLast=0;collapsible=1;marginBottom=0;swimlaneFillColor=#ffffff;rounded=0;shadow=0;comic=0;labelBackgroundColor=none;strokeWidth=1;fillColor=none;fontFamily=Verdana;fontSize=12" parent="jMFiFp2JRC3NRYyeH_Bl-8" vertex="1">
          <mxGeometry x="274.59016393442624" y="35.25" width="150" height="164" as="geometry" />
        </mxCell>
        <mxCell id="jMFiFp2JRC3NRYyeH_Bl-37" value="+ field: name" style="text;html=1;strokeColor=none;fillColor=none;align=left;verticalAlign=top;spacingLeft=2;spacingRight=1;whiteSpace=wrap;overflow=hidden;rotatable=0;points=[[0,0.5],[1,0.5]];portConstraint=eastwest;" parent="jMFiFp2JRC3NRYyeH_Bl-36" vertex="1">
          <mxGeometry y="26" width="150" height="26" as="geometry" />
        </mxCell>
        <mxCell id="jMFiFp2JRC3NRYyeH_Bl-38" value="+ field: company" style="text;html=1;strokeColor=none;fillColor=none;align=left;verticalAlign=top;spacingLeft=2;spacingRight=1;whiteSpace=wrap;overflow=hidden;rotatable=0;points=[[0,0.5],[1,0.5]];portConstraint=eastwest;" parent="jMFiFp2JRC3NRYyeH_Bl-36" vertex="1">
          <mxGeometry y="52" width="150" height="26" as="geometry" />
        </mxCell>
        <mxCell id="jMFiFp2JRC3NRYyeH_Bl-39" value="+ field: creation_date" style="text;html=1;strokeColor=none;fillColor=none;align=left;verticalAlign=top;spacingLeft=2;spacingRight=1;whiteSpace=wrap;overflow=hidden;rotatable=0;points=[[0,0.5],[1,0.5]];portConstraint=eastwest;" parent="jMFiFp2JRC3NRYyeH_Bl-36" vertex="1">
          <mxGeometry y="78" width="150" height="26" as="geometry" />
        </mxCell>
        <mxCell id="jMFiFp2JRC3NRYyeH_Bl-40" value="+ field: completion_date" style="text;html=1;strokeColor=none;fillColor=none;align=left;verticalAlign=top;spacingLeft=2;spacingRight=1;whiteSpace=wrap;overflow=hidden;rotatable=0;points=[[0,0.5],[1,0.5]];portConstraint=eastwest;" parent="jMFiFp2JRC3NRYyeH_Bl-36" vertex="1">
          <mxGeometry y="104" width="150" height="26" as="geometry" />
        </mxCell>
        <mxCell id="jMFiFp2JRC3NRYyeH_Bl-49" value="" style="line;html=1;strokeWidth=1;fillColor=none;align=left;verticalAlign=middle;spacingTop=-1;spacingLeft=3;spacingRight=3;rotatable=0;labelPosition=right;points=[];portConstraint=eastwest;" parent="jMFiFp2JRC3NRYyeH_Bl-36" vertex="1">
          <mxGeometry y="130" width="150" height="8" as="geometry" />
        </mxCell>
        <mxCell id="jMFiFp2JRC3NRYyeH_Bl-50" value="+ method(type): type" style="text;html=1;strokeColor=none;fillColor=none;align=left;verticalAlign=top;spacingLeft=4;spacingRight=4;whiteSpace=wrap;overflow=hidden;rotatable=0;points=[[0,0.5],[1,0.5]];portConstraint=eastwest;" parent="jMFiFp2JRC3NRYyeH_Bl-36" vertex="1">
          <mxGeometry y="138" width="150" height="26" as="geometry" />
        </mxCell>
        <mxCell id="jMFiFp2JRC3NRYyeH_Bl-84" style="edgeStyle=orthogonalEdgeStyle;rounded=0;orthogonalLoop=1;jettySize=auto;html=1;exitX=0;exitY=0.5;exitDx=0;exitDy=0;fontSize=18;endSize=12;endArrow=diamondThin;endFill=0;" parent="jMFiFp2JRC3NRYyeH_Bl-8" source="jMFiFp2JRC3NRYyeH_Bl-38" target="jMFiFp2JRC3NRYyeH_Bl-2" edge="1">
          <mxGeometry relative="1" as="geometry" />
        </mxCell>
        <mxCell id="jMFiFp2JRC3NRYyeH_Bl-85" value="FK" style="edgeLabel;html=1;align=center;verticalAlign=middle;resizable=0;points=[];fontSize=18;" parent="jMFiFp2JRC3NRYyeH_Bl-84" vertex="1" connectable="0">
          <mxGeometry x="0.026" relative="1" as="geometry">
            <mxPoint as="offset" />
          </mxGeometry>
        </mxCell>
        <mxCell id="jMFiFp2JRC3NRYyeH_Bl-86" value="Member" style="swimlane;html=1;fontStyle=1;align=center;verticalAlign=top;childLayout=stackLayout;horizontal=1;startSize=26;horizontalStack=0;resizeParent=1;resizeLast=0;collapsible=1;marginBottom=0;swimlaneFillColor=#ffffff;rounded=0;shadow=0;comic=0;labelBackgroundColor=none;strokeWidth=1;fillColor=none;fontFamily=Verdana;fontSize=12" parent="jMFiFp2JRC3NRYyeH_Bl-8" vertex="1">
          <mxGeometry x="490" y="35.25" width="160" height="216" as="geometry" />
        </mxCell>
        <mxCell id="jMFiFp2JRC3NRYyeH_Bl-87" value="+ field: user" style="text;html=1;strokeColor=none;fillColor=none;align=left;verticalAlign=top;spacingLeft=2;spacingRight=1;whiteSpace=wrap;overflow=hidden;rotatable=0;points=[[0,0.5],[1,0.5]];portConstraint=eastwest;" parent="jMFiFp2JRC3NRYyeH_Bl-86" vertex="1">
          <mxGeometry y="26" width="160" height="26" as="geometry" />
        </mxCell>
        <mxCell id="jMFiFp2JRC3NRYyeH_Bl-88" value="+ field: project" style="text;html=1;strokeColor=none;fillColor=none;align=left;verticalAlign=top;spacingLeft=2;spacingRight=1;whiteSpace=wrap;overflow=hidden;rotatable=0;points=[[0,0.5],[1,0.5]];portConstraint=eastwest;" parent="jMFiFp2JRC3NRYyeH_Bl-86" vertex="1">
          <mxGeometry y="52" width="160" height="26" as="geometry" />
        </mxCell>
        <mxCell id="jMFiFp2JRC3NRYyeH_Bl-89" value="+ field: hour_value" style="text;html=1;strokeColor=none;fillColor=none;align=left;verticalAlign=top;spacingLeft=2;spacingRight=1;whiteSpace=wrap;overflow=hidden;rotatable=0;points=[[0,0.5],[1,0.5]];portConstraint=eastwest;" parent="jMFiFp2JRC3NRYyeH_Bl-86" vertex="1">
          <mxGeometry y="78" width="160" height="26" as="geometry" />
        </mxCell>
        <mxCell id="jMFiFp2JRC3NRYyeH_Bl-93" value="+ field: completion_date" style="text;html=1;strokeColor=none;fillColor=none;align=left;verticalAlign=top;spacingLeft=2;spacingRight=1;whiteSpace=wrap;overflow=hidden;rotatable=0;points=[[0,0.5],[1,0.5]];portConstraint=eastwest;" parent="jMFiFp2JRC3NRYyeH_Bl-86" vertex="1">
          <mxGeometry y="104" width="160" height="26" as="geometry" />
        </mxCell>
        <mxCell id="jMFiFp2JRC3NRYyeH_Bl-90" value="+ field: is_available" style="text;html=1;strokeColor=none;fillColor=none;align=left;verticalAlign=top;spacingLeft=2;spacingRight=1;whiteSpace=wrap;overflow=hidden;rotatable=0;points=[[0,0.5],[1,0.5]];portConstraint=eastwest;" parent="jMFiFp2JRC3NRYyeH_Bl-86" vertex="1">
          <mxGeometry y="130" width="160" height="26" as="geometry" />
        </mxCell>
        <mxCell id="jMFiFp2JRC3NRYyeH_Bl-94" value="+ field: creation_date" style="text;html=1;strokeColor=none;fillColor=none;align=left;verticalAlign=top;spacingLeft=2;spacingRight=1;whiteSpace=wrap;overflow=hidden;rotatable=0;points=[[0,0.5],[1,0.5]];portConstraint=eastwest;" parent="jMFiFp2JRC3NRYyeH_Bl-86" vertex="1">
          <mxGeometry y="156" width="160" height="26" as="geometry" />
        </mxCell>
        <mxCell id="jMFiFp2JRC3NRYyeH_Bl-91" value="" style="line;html=1;strokeWidth=1;fillColor=none;align=left;verticalAlign=middle;spacingTop=-1;spacingLeft=3;spacingRight=3;rotatable=0;labelPosition=right;points=[];portConstraint=eastwest;" parent="jMFiFp2JRC3NRYyeH_Bl-86" vertex="1">
          <mxGeometry y="182" width="160" height="8" as="geometry" />
        </mxCell>
        <mxCell id="jMFiFp2JRC3NRYyeH_Bl-92" value="+ method(type): type" style="text;html=1;strokeColor=none;fillColor=none;align=left;verticalAlign=top;spacingLeft=4;spacingRight=4;whiteSpace=wrap;overflow=hidden;rotatable=0;points=[[0,0.5],[1,0.5]];portConstraint=eastwest;" parent="jMFiFp2JRC3NRYyeH_Bl-86" vertex="1">
          <mxGeometry y="190" width="160" height="26" as="geometry" />
        </mxCell>
        <mxCell id="jMFiFp2JRC3NRYyeH_Bl-95" style="edgeStyle=orthogonalEdgeStyle;rounded=0;orthogonalLoop=1;jettySize=auto;html=1;exitX=0;exitY=0.5;exitDx=0;exitDy=0;fontSize=18;endSize=12;endArrow=diamondThin;endFill=0;" parent="jMFiFp2JRC3NRYyeH_Bl-8" source="jMFiFp2JRC3NRYyeH_Bl-88" target="jMFiFp2JRC3NRYyeH_Bl-37" edge="1">
          <mxGeometry relative="1" as="geometry" />
        </mxCell>
        <mxCell id="jMFiFp2JRC3NRYyeH_Bl-96" value="FK" style="edgeLabel;html=1;align=center;verticalAlign=middle;resizable=0;points=[];fontSize=18;" parent="jMFiFp2JRC3NRYyeH_Bl-95" vertex="1" connectable="0">
          <mxGeometry x="-0.0575" y="-2" relative="1" as="geometry">
            <mxPoint as="offset" />
          </mxGeometry>
        </mxCell>
        <mxCell id="jMFiFp2JRC3NRYyeH_Bl-97" value="CurrentPeriod" style="swimlane;html=1;fontStyle=1;align=center;verticalAlign=top;childLayout=stackLayout;horizontal=1;startSize=26;horizontalStack=0;resizeParent=1;resizeLast=0;collapsible=1;marginBottom=0;swimlaneFillColor=#ffffff;rounded=0;shadow=0;comic=0;labelBackgroundColor=none;strokeWidth=1;fillColor=none;fontFamily=Verdana;fontSize=12" parent="jMFiFp2JRC3NRYyeH_Bl-8" vertex="1">
          <mxGeometry x="274.59" y="230" width="155.41" height="120" as="geometry" />
        </mxCell>
        <mxCell id="jMFiFp2JRC3NRYyeH_Bl-98" value="+ field: initial_date" style="text;html=1;strokeColor=none;fillColor=none;align=left;verticalAlign=top;spacingLeft=2;spacingRight=1;whiteSpace=wrap;overflow=hidden;rotatable=0;points=[[0,0.5],[1,0.5]];portConstraint=eastwest;" parent="jMFiFp2JRC3NRYyeH_Bl-97" vertex="1">
          <mxGeometry y="26" width="155.41" height="26" as="geometry" />
        </mxCell>
        <mxCell id="jMFiFp2JRC3NRYyeH_Bl-99" value="+ field: final_date" style="text;html=1;strokeColor=none;fillColor=none;align=left;verticalAlign=top;spacingLeft=2;spacingRight=1;whiteSpace=wrap;overflow=hidden;rotatable=0;points=[[0,0.5],[1,0.5]];portConstraint=eastwest;" parent="jMFiFp2JRC3NRYyeH_Bl-97" vertex="1">
          <mxGeometry y="52" width="155.41" height="26" as="geometry" />
        </mxCell>
        <mxCell id="jMFiFp2JRC3NRYyeH_Bl-102" value="" style="line;html=1;strokeWidth=1;fillColor=none;align=left;verticalAlign=middle;spacingTop=-1;spacingLeft=3;spacingRight=3;rotatable=0;labelPosition=right;points=[];portConstraint=eastwest;" parent="jMFiFp2JRC3NRYyeH_Bl-97" vertex="1">
          <mxGeometry y="78" width="155.41" height="8" as="geometry" />
        </mxCell>
        <mxCell id="jMFiFp2JRC3NRYyeH_Bl-103" value="+ method(type): type" style="text;html=1;strokeColor=none;fillColor=none;align=left;verticalAlign=top;spacingLeft=4;spacingRight=4;whiteSpace=wrap;overflow=hidden;rotatable=0;points=[[0,0.5],[1,0.5]];portConstraint=eastwest;" parent="jMFiFp2JRC3NRYyeH_Bl-97" vertex="1">
          <mxGeometry y="86" width="155.41" height="26" as="geometry" />
        </mxCell>
        <mxCell id="jMFiFp2JRC3NRYyeH_Bl-20" value="Company" style="swimlane;html=1;fontStyle=1;align=center;verticalAlign=top;childLayout=stackLayout;horizontal=1;startSize=26;horizontalStack=0;resizeParent=1;resizeLast=0;collapsible=1;marginBottom=0;swimlaneFillColor=#ffffff;rounded=0;shadow=0;comic=0;labelBackgroundColor=none;strokeWidth=1;fillColor=none;fontFamily=Verdana;fontSize=12" parent="1" vertex="1">
          <mxGeometry x="-180" y="-1180" width="160" height="372" as="geometry" />
        </mxCell>
        <mxCell id="jMFiFp2JRC3NRYyeH_Bl-21" value="+ field: Company" style="text;html=1;strokeColor=none;fillColor=none;align=left;verticalAlign=top;spacingLeft=2;spacingRight=1;whiteSpace=wrap;overflow=hidden;rotatable=0;points=[[0,0.5],[1,0.5]];portConstraint=eastwest;" parent="jMFiFp2JRC3NRYyeH_Bl-20" vertex="1">
          <mxGeometry y="26" width="160" height="26" as="geometry" />
        </mxCell>
        <mxCell id="jMFiFp2JRC3NRYyeH_Bl-22" value="+ field: cnpj" style="text;html=1;strokeColor=none;fillColor=none;align=left;verticalAlign=top;spacingLeft=2;spacingRight=1;whiteSpace=wrap;overflow=hidden;rotatable=0;points=[[0,0.5],[1,0.5]];portConstraint=eastwest;" parent="jMFiFp2JRC3NRYyeH_Bl-20" vertex="1">
          <mxGeometry y="52" width="160" height="26" as="geometry" />
        </mxCell>
        <mxCell id="jMFiFp2JRC3NRYyeH_Bl-23" value="+ field: postal_code" style="text;html=1;strokeColor=none;fillColor=none;align=left;verticalAlign=top;spacingLeft=2;spacingRight=1;whiteSpace=wrap;overflow=hidden;rotatable=0;points=[[0,0.5],[1,0.5]];portConstraint=eastwest;" parent="jMFiFp2JRC3NRYyeH_Bl-20" vertex="1">
          <mxGeometry y="78" width="160" height="26" as="geometry" />
        </mxCell>
        <mxCell id="jMFiFp2JRC3NRYyeH_Bl-24" value="+ field: email" style="text;html=1;strokeColor=none;fillColor=none;align=left;verticalAlign=top;spacingLeft=2;spacingRight=1;whiteSpace=wrap;overflow=hidden;rotatable=0;points=[[0,0.5],[1,0.5]];portConstraint=eastwest;" parent="jMFiFp2JRC3NRYyeH_Bl-20" vertex="1">
          <mxGeometry y="104" width="160" height="26" as="geometry" />
        </mxCell>
        <mxCell id="jMFiFp2JRC3NRYyeH_Bl-25" value="+ field: address" style="text;html=1;strokeColor=none;fillColor=none;align=left;verticalAlign=top;spacingLeft=2;spacingRight=1;whiteSpace=wrap;overflow=hidden;rotatable=0;points=[[0,0.5],[1,0.5]];portConstraint=eastwest;" parent="jMFiFp2JRC3NRYyeH_Bl-20" vertex="1">
          <mxGeometry y="130" width="160" height="26" as="geometry" />
        </mxCell>
        <mxCell id="jMFiFp2JRC3NRYyeH_Bl-26" value="+ field: cell_phone" style="text;html=1;strokeColor=none;fillColor=none;align=left;verticalAlign=top;spacingLeft=2;spacingRight=1;whiteSpace=wrap;overflow=hidden;rotatable=0;points=[[0,0.5],[1,0.5]];portConstraint=eastwest;" parent="jMFiFp2JRC3NRYyeH_Bl-20" vertex="1">
          <mxGeometry y="156" width="160" height="26" as="geometry" />
        </mxCell>
        <mxCell id="jMFiFp2JRC3NRYyeH_Bl-27" value="+ field: number" style="text;html=1;strokeColor=none;fillColor=none;align=left;verticalAlign=top;spacingLeft=2;spacingRight=1;whiteSpace=wrap;overflow=hidden;rotatable=0;points=[[0,0.5],[1,0.5]];portConstraint=eastwest;" parent="jMFiFp2JRC3NRYyeH_Bl-20" vertex="1">
          <mxGeometry y="182" width="160" height="26" as="geometry" />
        </mxCell>
        <mxCell id="jMFiFp2JRC3NRYyeH_Bl-28" value="+ field: complement" style="text;html=1;strokeColor=none;fillColor=none;align=left;verticalAlign=top;spacingLeft=2;spacingRight=1;whiteSpace=wrap;overflow=hidden;rotatable=0;points=[[0,0.5],[1,0.5]];portConstraint=eastwest;" parent="jMFiFp2JRC3NRYyeH_Bl-20" vertex="1">
          <mxGeometry y="208" width="160" height="26" as="geometry" />
        </mxCell>
        <mxCell id="jMFiFp2JRC3NRYyeH_Bl-29" value="+ field: district" style="text;html=1;strokeColor=none;fillColor=none;align=left;verticalAlign=top;spacingLeft=2;spacingRight=1;whiteSpace=wrap;overflow=hidden;rotatable=0;points=[[0,0.5],[1,0.5]];portConstraint=eastwest;" parent="jMFiFp2JRC3NRYyeH_Bl-20" vertex="1">
          <mxGeometry y="234" width="160" height="26" as="geometry" />
        </mxCell>
        <mxCell id="jMFiFp2JRC3NRYyeH_Bl-30" value="+ field: state" style="text;html=1;strokeColor=none;fillColor=none;align=left;verticalAlign=top;spacingLeft=2;spacingRight=1;whiteSpace=wrap;overflow=hidden;rotatable=0;points=[[0,0.5],[1,0.5]];portConstraint=eastwest;" parent="jMFiFp2JRC3NRYyeH_Bl-20" vertex="1">
          <mxGeometry y="260" width="160" height="26" as="geometry" />
        </mxCell>
        <mxCell id="jMFiFp2JRC3NRYyeH_Bl-31" value="+ field: city" style="text;html=1;strokeColor=none;fillColor=none;align=left;verticalAlign=top;spacingLeft=2;spacingRight=1;whiteSpace=wrap;overflow=hidden;rotatable=0;points=[[0,0.5],[1,0.5]];portConstraint=eastwest;" parent="jMFiFp2JRC3NRYyeH_Bl-20" vertex="1">
          <mxGeometry y="286" width="160" height="26" as="geometry" />
        </mxCell>
        <mxCell id="jMFiFp2JRC3NRYyeH_Bl-32" value="+ field: photo_profile" style="text;html=1;strokeColor=none;fillColor=none;align=left;verticalAlign=top;spacingLeft=2;spacingRight=1;whiteSpace=wrap;overflow=hidden;rotatable=0;points=[[0,0.5],[1,0.5]];portConstraint=eastwest;" parent="jMFiFp2JRC3NRYyeH_Bl-20" vertex="1">
          <mxGeometry y="312" width="160" height="26" as="geometry" />
        </mxCell>
        <mxCell id="jMFiFp2JRC3NRYyeH_Bl-33" value="" style="line;html=1;strokeWidth=1;fillColor=none;align=left;verticalAlign=middle;spacingTop=-1;spacingLeft=3;spacingRight=3;rotatable=0;labelPosition=right;points=[];portConstraint=eastwest;" parent="jMFiFp2JRC3NRYyeH_Bl-20" vertex="1">
          <mxGeometry y="338" width="160" height="8" as="geometry" />
        </mxCell>
        <mxCell id="jMFiFp2JRC3NRYyeH_Bl-34" value="+ method(type): type" style="text;html=1;strokeColor=none;fillColor=none;align=left;verticalAlign=top;spacingLeft=4;spacingRight=4;whiteSpace=wrap;overflow=hidden;rotatable=0;points=[[0,0.5],[1,0.5]];portConstraint=eastwest;" parent="jMFiFp2JRC3NRYyeH_Bl-20" vertex="1">
          <mxGeometry y="346" width="160" height="26" as="geometry" />
        </mxCell>
        <mxCell id="jMFiFp2JRC3NRYyeH_Bl-76" value="Project" style="swimlane;html=1;fontStyle=1;align=center;verticalAlign=top;childLayout=stackLayout;horizontal=1;startSize=26;horizontalStack=0;resizeParent=1;resizeLast=0;collapsible=1;marginBottom=0;swimlaneFillColor=#ffffff;rounded=0;shadow=0;comic=0;labelBackgroundColor=none;strokeWidth=1;fillColor=none;fontFamily=Verdana;fontSize=12" parent="1" vertex="1">
          <mxGeometry x="-180" y="-507" width="160" height="164" as="geometry" />
        </mxCell>
        <mxCell id="jMFiFp2JRC3NRYyeH_Bl-77" value="+ field: Name" style="text;html=1;strokeColor=none;fillColor=none;align=left;verticalAlign=top;spacingLeft=2;spacingRight=1;whiteSpace=wrap;overflow=hidden;rotatable=0;points=[[0,0.5],[1,0.5]];portConstraint=eastwest;" parent="jMFiFp2JRC3NRYyeH_Bl-76" vertex="1">
          <mxGeometry y="26" width="160" height="26" as="geometry" />
        </mxCell>
        <mxCell id="jMFiFp2JRC3NRYyeH_Bl-78" value="+ field: company" style="text;html=1;strokeColor=none;fillColor=none;align=left;verticalAlign=top;spacingLeft=2;spacingRight=1;whiteSpace=wrap;overflow=hidden;rotatable=0;points=[[0,0.5],[1,0.5]];portConstraint=eastwest;" parent="jMFiFp2JRC3NRYyeH_Bl-76" vertex="1">
          <mxGeometry y="52" width="160" height="26" as="geometry" />
        </mxCell>
        <mxCell id="jMFiFp2JRC3NRYyeH_Bl-79" value="+ field: creation_date" style="text;html=1;strokeColor=none;fillColor=none;align=left;verticalAlign=top;spacingLeft=2;spacingRight=1;whiteSpace=wrap;overflow=hidden;rotatable=0;points=[[0,0.5],[1,0.5]];portConstraint=eastwest;" parent="jMFiFp2JRC3NRYyeH_Bl-76" vertex="1">
          <mxGeometry y="78" width="160" height="26" as="geometry" />
        </mxCell>
        <mxCell id="jMFiFp2JRC3NRYyeH_Bl-80" value="+ field: completion_date" style="text;html=1;strokeColor=none;fillColor=none;align=left;verticalAlign=top;spacingLeft=2;spacingRight=1;whiteSpace=wrap;overflow=hidden;rotatable=0;points=[[0,0.5],[1,0.5]];portConstraint=eastwest;" parent="jMFiFp2JRC3NRYyeH_Bl-76" vertex="1">
          <mxGeometry y="104" width="160" height="26" as="geometry" />
        </mxCell>
        <mxCell id="jMFiFp2JRC3NRYyeH_Bl-81" value="" style="line;html=1;strokeWidth=1;fillColor=none;align=left;verticalAlign=middle;spacingTop=-1;spacingLeft=3;spacingRight=3;rotatable=0;labelPosition=right;points=[];portConstraint=eastwest;" parent="jMFiFp2JRC3NRYyeH_Bl-76" vertex="1">
          <mxGeometry y="130" width="160" height="8" as="geometry" />
        </mxCell>
        <mxCell id="jMFiFp2JRC3NRYyeH_Bl-82" value="+ method(type): type" style="text;html=1;strokeColor=none;fillColor=none;align=left;verticalAlign=top;spacingLeft=4;spacingRight=4;whiteSpace=wrap;overflow=hidden;rotatable=0;points=[[0,0.5],[1,0.5]];portConstraint=eastwest;" parent="jMFiFp2JRC3NRYyeH_Bl-76" vertex="1">
          <mxGeometry y="138" width="160" height="26" as="geometry" />
        </mxCell>
        <mxCell id="jMFiFp2JRC3NRYyeH_Bl-105" value="User" style="swimlane;html=1;fontStyle=1;align=center;verticalAlign=top;childLayout=stackLayout;horizontal=1;startSize=26;horizontalStack=0;resizeParent=1;resizeLast=0;collapsible=1;marginBottom=0;swimlaneFillColor=#ffffff;rounded=0;shadow=0;comic=0;labelBackgroundColor=none;strokeWidth=1;fillColor=none;fontFamily=Verdana;fontSize=12" parent="1" vertex="1">
          <mxGeometry x="35" y="-46" width="160" height="346" as="geometry" />
        </mxCell>
        <mxCell id="jMFiFp2JRC3NRYyeH_Bl-106" value="+ field: cnpj" style="text;html=1;strokeColor=none;fillColor=none;align=left;verticalAlign=top;spacingLeft=2;spacingRight=1;whiteSpace=wrap;overflow=hidden;rotatable=0;points=[[0,0.5],[1,0.5]];portConstraint=eastwest;" parent="jMFiFp2JRC3NRYyeH_Bl-105" vertex="1">
          <mxGeometry y="26" width="160" height="26" as="geometry" />
        </mxCell>
        <mxCell id="jMFiFp2JRC3NRYyeH_Bl-107" value="+ field: cpf" style="text;html=1;strokeColor=none;fillColor=none;align=left;verticalAlign=top;spacingLeft=2;spacingRight=1;whiteSpace=wrap;overflow=hidden;rotatable=0;points=[[0,0.5],[1,0.5]];portConstraint=eastwest;" parent="jMFiFp2JRC3NRYyeH_Bl-105" vertex="1">
          <mxGeometry y="52" width="160" height="26" as="geometry" />
        </mxCell>
        <mxCell id="jMFiFp2JRC3NRYyeH_Bl-108" value="+ field: postal_code" style="text;html=1;strokeColor=none;fillColor=none;align=left;verticalAlign=top;spacingLeft=2;spacingRight=1;whiteSpace=wrap;overflow=hidden;rotatable=0;points=[[0,0.5],[1,0.5]];portConstraint=eastwest;" parent="jMFiFp2JRC3NRYyeH_Bl-105" vertex="1">
          <mxGeometry y="78" width="160" height="26" as="geometry" />
        </mxCell>
        <mxCell id="jMFiFp2JRC3NRYyeH_Bl-109" value="+ field: address" style="text;html=1;strokeColor=none;fillColor=none;align=left;verticalAlign=top;spacingLeft=2;spacingRight=1;whiteSpace=wrap;overflow=hidden;rotatable=0;points=[[0,0.5],[1,0.5]];portConstraint=eastwest;" parent="jMFiFp2JRC3NRYyeH_Bl-105" vertex="1">
          <mxGeometry y="104" width="160" height="26" as="geometry" />
        </mxCell>
        <mxCell id="jMFiFp2JRC3NRYyeH_Bl-111" value="+ field: cell_phone" style="text;html=1;strokeColor=none;fillColor=none;align=left;verticalAlign=top;spacingLeft=2;spacingRight=1;whiteSpace=wrap;overflow=hidden;rotatable=0;points=[[0,0.5],[1,0.5]];portConstraint=eastwest;" parent="jMFiFp2JRC3NRYyeH_Bl-105" vertex="1">
          <mxGeometry y="130" width="160" height="26" as="geometry" />
        </mxCell>
        <mxCell id="jMFiFp2JRC3NRYyeH_Bl-112" value="+ field: number" style="text;html=1;strokeColor=none;fillColor=none;align=left;verticalAlign=top;spacingLeft=2;spacingRight=1;whiteSpace=wrap;overflow=hidden;rotatable=0;points=[[0,0.5],[1,0.5]];portConstraint=eastwest;" parent="jMFiFp2JRC3NRYyeH_Bl-105" vertex="1">
          <mxGeometry y="156" width="160" height="26" as="geometry" />
        </mxCell>
        <mxCell id="jMFiFp2JRC3NRYyeH_Bl-113" value="+ field: complement" style="text;html=1;strokeColor=none;fillColor=none;align=left;verticalAlign=top;spacingLeft=2;spacingRight=1;whiteSpace=wrap;overflow=hidden;rotatable=0;points=[[0,0.5],[1,0.5]];portConstraint=eastwest;" parent="jMFiFp2JRC3NRYyeH_Bl-105" vertex="1">
          <mxGeometry y="182" width="160" height="26" as="geometry" />
        </mxCell>
        <mxCell id="jMFiFp2JRC3NRYyeH_Bl-114" value="+ field: district" style="text;html=1;strokeColor=none;fillColor=none;align=left;verticalAlign=top;spacingLeft=2;spacingRight=1;whiteSpace=wrap;overflow=hidden;rotatable=0;points=[[0,0.5],[1,0.5]];portConstraint=eastwest;" parent="jMFiFp2JRC3NRYyeH_Bl-105" vertex="1">
          <mxGeometry y="208" width="160" height="26" as="geometry" />
        </mxCell>
        <mxCell id="jMFiFp2JRC3NRYyeH_Bl-115" value="+ field: state" style="text;html=1;strokeColor=none;fillColor=none;align=left;verticalAlign=top;spacingLeft=2;spacingRight=1;whiteSpace=wrap;overflow=hidden;rotatable=0;points=[[0,0.5],[1,0.5]];portConstraint=eastwest;" parent="jMFiFp2JRC3NRYyeH_Bl-105" vertex="1">
          <mxGeometry y="234" width="160" height="26" as="geometry" />
        </mxCell>
        <mxCell id="jMFiFp2JRC3NRYyeH_Bl-116" value="+ field: city" style="text;html=1;strokeColor=none;fillColor=none;align=left;verticalAlign=top;spacingLeft=2;spacingRight=1;whiteSpace=wrap;overflow=hidden;rotatable=0;points=[[0,0.5],[1,0.5]];portConstraint=eastwest;" parent="jMFiFp2JRC3NRYyeH_Bl-105" vertex="1">
          <mxGeometry y="260" width="160" height="26" as="geometry" />
        </mxCell>
        <mxCell id="jMFiFp2JRC3NRYyeH_Bl-117" value="+ field: photo_profile" style="text;html=1;strokeColor=none;fillColor=none;align=left;verticalAlign=top;spacingLeft=2;spacingRight=1;whiteSpace=wrap;overflow=hidden;rotatable=0;points=[[0,0.5],[1,0.5]];portConstraint=eastwest;" parent="jMFiFp2JRC3NRYyeH_Bl-105" vertex="1">
          <mxGeometry y="286" width="160" height="26" as="geometry" />
        </mxCell>
        <mxCell id="jMFiFp2JRC3NRYyeH_Bl-118" value="" style="line;html=1;strokeWidth=1;fillColor=none;align=left;verticalAlign=middle;spacingTop=-1;spacingLeft=3;spacingRight=3;rotatable=0;labelPosition=right;points=[];portConstraint=eastwest;" parent="jMFiFp2JRC3NRYyeH_Bl-105" vertex="1">
          <mxGeometry y="312" width="160" height="8" as="geometry" />
        </mxCell>
        <mxCell id="jMFiFp2JRC3NRYyeH_Bl-119" value="+ method(type): type" style="text;html=1;strokeColor=none;fillColor=none;align=left;verticalAlign=top;spacingLeft=4;spacingRight=4;whiteSpace=wrap;overflow=hidden;rotatable=0;points=[[0,0.5],[1,0.5]];portConstraint=eastwest;" parent="jMFiFp2JRC3NRYyeH_Bl-105" vertex="1">
          <mxGeometry y="320" width="160" height="26" as="geometry" />
        </mxCell>
        <mxCell id="jMFiFp2JRC3NRYyeH_Bl-120" style="edgeStyle=orthogonalEdgeStyle;rounded=0;orthogonalLoop=1;jettySize=auto;html=1;fontSize=18;exitX=0;exitY=0.5;exitDx=0;exitDy=0;endArrow=diamondThin;endFill=0;endSize=12;" parent="1" source="jMFiFp2JRC3NRYyeH_Bl-94" target="jMFiFp2JRC3NRYyeH_Bl-107" edge="1">
          <mxGeometry relative="1" as="geometry">
            <mxPoint x="200" y="4" as="targetPoint" />
            <Array as="points">
              <mxPoint x="830" y="-206" />
              <mxPoint x="830" y="20" />
            </Array>
          </mxGeometry>
        </mxCell>
        <mxCell id="jMFiFp2JRC3NRYyeH_Bl-122" value="FK" style="edgeLabel;html=1;align=center;verticalAlign=middle;resizable=0;points=[];fontSize=18;" parent="jMFiFp2JRC3NRYyeH_Bl-120" vertex="1" connectable="0">
          <mxGeometry x="-0.2072" relative="1" as="geometry">
            <mxPoint x="-476" y="-1" as="offset" />
          </mxGeometry>
        </mxCell>
        <mxCell id="jMFiFp2JRC3NRYyeH_Bl-138" value="NewPoint" style="swimlane;html=1;fontStyle=1;align=center;verticalAlign=top;childLayout=stackLayout;horizontal=1;startSize=26;horizontalStack=0;resizeParent=1;resizeLast=0;collapsible=1;marginBottom=0;swimlaneFillColor=#ffffff;rounded=0;shadow=0;comic=0;labelBackgroundColor=none;strokeWidth=1;fillColor=none;fontFamily=Verdana;fontSize=12" parent="1" vertex="1">
          <mxGeometry x="-180" y="-790" width="160" height="268" as="geometry" />
        </mxCell>
        <mxCell id="jMFiFp2JRC3NRYyeH_Bl-139" value="+ field: user" style="text;html=1;strokeColor=none;fillColor=none;align=left;verticalAlign=top;spacingLeft=2;spacingRight=1;whiteSpace=wrap;overflow=hidden;rotatable=0;points=[[0,0.5],[1,0.5]];portConstraint=eastwest;" parent="jMFiFp2JRC3NRYyeH_Bl-138" vertex="1">
          <mxGeometry y="26" width="160" height="26" as="geometry" />
        </mxCell>
        <mxCell id="jMFiFp2JRC3NRYyeH_Bl-140" value="+ field: datanow" style="text;html=1;strokeColor=none;fillColor=none;align=left;verticalAlign=top;spacingLeft=2;spacingRight=1;whiteSpace=wrap;overflow=hidden;rotatable=0;points=[[0,0.5],[1,0.5]];portConstraint=eastwest;" parent="jMFiFp2JRC3NRYyeH_Bl-138" vertex="1">
          <mxGeometry y="52" width="160" height="26" as="geometry" />
        </mxCell>
        <mxCell id="jMFiFp2JRC3NRYyeH_Bl-141" value="+ field: timenow" style="text;html=1;strokeColor=none;fillColor=none;align=left;verticalAlign=top;spacingLeft=2;spacingRight=1;whiteSpace=wrap;overflow=hidden;rotatable=0;points=[[0,0.5],[1,0.5]];portConstraint=eastwest;" parent="jMFiFp2JRC3NRYyeH_Bl-138" vertex="1">
          <mxGeometry y="78" width="160" height="26" as="geometry" />
        </mxCell>
        <mxCell id="jMFiFp2JRC3NRYyeH_Bl-142" value="+ field: data" style="text;html=1;strokeColor=none;fillColor=none;align=left;verticalAlign=top;spacingLeft=2;spacingRight=1;whiteSpace=wrap;overflow=hidden;rotatable=0;points=[[0,0.5],[1,0.5]];portConstraint=eastwest;" parent="jMFiFp2JRC3NRYyeH_Bl-138" vertex="1">
          <mxGeometry y="104" width="160" height="26" as="geometry" />
        </mxCell>
        <mxCell id="jMFiFp2JRC3NRYyeH_Bl-143" value="+ field: horario" style="text;html=1;strokeColor=none;fillColor=none;align=left;verticalAlign=top;spacingLeft=2;spacingRight=1;whiteSpace=wrap;overflow=hidden;rotatable=0;points=[[0,0.5],[1,0.5]];portConstraint=eastwest;" parent="jMFiFp2JRC3NRYyeH_Bl-138" vertex="1">
          <mxGeometry y="130" width="160" height="26" as="geometry" />
        </mxCell>
        <mxCell id="jMFiFp2JRC3NRYyeH_Bl-144" value="+ field: observacoes" style="text;html=1;strokeColor=none;fillColor=none;align=left;verticalAlign=top;spacingLeft=2;spacingRight=1;whiteSpace=wrap;overflow=hidden;rotatable=0;points=[[0,0.5],[1,0.5]];portConstraint=eastwest;" parent="jMFiFp2JRC3NRYyeH_Bl-138" vertex="1">
          <mxGeometry y="156" width="160" height="26" as="geometry" />
        </mxCell>
        <mxCell id="jMFiFp2JRC3NRYyeH_Bl-145" value="+ field: to_alter" style="text;html=1;strokeColor=none;fillColor=none;align=left;verticalAlign=top;spacingLeft=2;spacingRight=1;whiteSpace=wrap;overflow=hidden;rotatable=0;points=[[0,0.5],[1,0.5]];portConstraint=eastwest;" parent="jMFiFp2JRC3NRYyeH_Bl-138" vertex="1">
          <mxGeometry y="182" width="160" height="26" as="geometry" />
        </mxCell>
        <mxCell id="jMFiFp2JRC3NRYyeH_Bl-146" value="+ field: to_manual" style="text;html=1;strokeColor=none;fillColor=none;align=left;verticalAlign=top;spacingLeft=2;spacingRight=1;whiteSpace=wrap;overflow=hidden;rotatable=0;points=[[0,0.5],[1,0.5]];portConstraint=eastwest;" parent="jMFiFp2JRC3NRYyeH_Bl-138" vertex="1">
          <mxGeometry y="208" width="160" height="26" as="geometry" />
        </mxCell>
        <mxCell id="jMFiFp2JRC3NRYyeH_Bl-147" value="" style="line;html=1;strokeWidth=1;fillColor=none;align=left;verticalAlign=middle;spacingTop=-1;spacingLeft=3;spacingRight=3;rotatable=0;labelPosition=right;points=[];portConstraint=eastwest;" parent="jMFiFp2JRC3NRYyeH_Bl-138" vertex="1">
          <mxGeometry y="234" width="160" height="8" as="geometry" />
        </mxCell>
        <mxCell id="jMFiFp2JRC3NRYyeH_Bl-148" value="+ method(type): type" style="text;html=1;strokeColor=none;fillColor=none;align=left;verticalAlign=top;spacingLeft=4;spacingRight=4;whiteSpace=wrap;overflow=hidden;rotatable=0;points=[[0,0.5],[1,0.5]];portConstraint=eastwest;" parent="jMFiFp2JRC3NRYyeH_Bl-138" vertex="1">
          <mxGeometry y="242" width="160" height="26" as="geometry" />
        </mxCell>
        <mxCell id="jMFiFp2JRC3NRYyeH_Bl-178" style="edgeStyle=orthogonalEdgeStyle;rounded=0;orthogonalLoop=1;jettySize=auto;html=1;fontSize=18;endArrow=diamondThin;endFill=0;endSize=12;" parent="1" source="jMFiFp2JRC3NRYyeH_Bl-158" edge="1">
          <mxGeometry relative="1" as="geometry">
            <mxPoint x="60" y="301" as="targetPoint" />
            <Array as="points">
              <mxPoint x="570" y="722" />
              <mxPoint x="570" y="810" />
              <mxPoint x="60" y="810" />
            </Array>
          </mxGeometry>
        </mxCell>
        <mxCell id="jMFiFp2JRC3NRYyeH_Bl-183" value="FK" style="edgeLabel;html=1;align=center;verticalAlign=middle;resizable=0;points=[];fontSize=18;" parent="jMFiFp2JRC3NRYyeH_Bl-178" vertex="1" connectable="0">
          <mxGeometry x="-0.15" y="1" relative="1" as="geometry">
            <mxPoint x="-137" y="-9" as="offset" />
          </mxGeometry>
        </mxCell>
        <mxCell id="jMFiFp2JRC3NRYyeH_Bl-179" style="edgeStyle=orthogonalEdgeStyle;rounded=0;orthogonalLoop=1;jettySize=auto;html=1;fontSize=18;endArrow=diamondThin;endFill=0;entryX=0.452;entryY=0.984;entryDx=0;entryDy=0;entryPerimeter=0;endSize=12;exitX=0;exitY=0.06;exitDx=0;exitDy=0;exitPerimeter=0;" parent="1" source="jMFiFp2JRC3NRYyeH_Bl-165" target="jMFiFp2JRC3NRYyeH_Bl-119" edge="1">
          <mxGeometry relative="1" as="geometry">
            <mxPoint x="354.97" y="560.0344827586209" as="sourcePoint" />
            <mxPoint x="115" y="310" as="targetPoint" />
            <Array as="points">
              <mxPoint x="365" y="560" />
              <mxPoint x="107" y="560" />
            </Array>
          </mxGeometry>
        </mxCell>
        <mxCell id="jMFiFp2JRC3NRYyeH_Bl-182" value="FK" style="edgeLabel;html=1;align=center;verticalAlign=middle;resizable=0;points=[];fontSize=18;" parent="jMFiFp2JRC3NRYyeH_Bl-179" vertex="1" connectable="0">
          <mxGeometry x="-0.5968" y="-4" relative="1" as="geometry">
            <mxPoint x="-138" y="4" as="offset" />
          </mxGeometry>
        </mxCell>
        <mxCell id="jMFiFp2JRC3NRYyeH_Bl-180" style="edgeStyle=orthogonalEdgeStyle;rounded=0;orthogonalLoop=1;jettySize=auto;html=1;fontSize=18;endArrow=diamondThin;endFill=0;endSize=12;" parent="1" source="jMFiFp2JRC3NRYyeH_Bl-123" edge="1">
          <mxGeometry relative="1" as="geometry">
            <mxPoint x="160" y="300" as="targetPoint" />
            <Array as="points">
              <mxPoint x="895" y="440" />
              <mxPoint x="160" y="440" />
            </Array>
            <mxPoint x="895" y="540" as="sourcePoint" />
          </mxGeometry>
        </mxCell>
        <mxCell id="jMFiFp2JRC3NRYyeH_Bl-181" value="FK" style="edgeLabel;html=1;align=center;verticalAlign=middle;resizable=0;points=[];fontSize=18;" parent="jMFiFp2JRC3NRYyeH_Bl-180" vertex="1" connectable="0">
          <mxGeometry x="-0.2678" y="2" relative="1" as="geometry">
            <mxPoint x="-489" as="offset" />
          </mxGeometry>
        </mxCell>
        <mxCell id="jMFiFp2JRC3NRYyeH_Bl-204" style="edgeStyle=orthogonalEdgeStyle;rounded=0;orthogonalLoop=1;jettySize=auto;html=1;fontSize=18;endArrow=diamondThin;endFill=0;entryX=1;entryY=0.5;entryDx=0;entryDy=0;dashed=1;strokeWidth=2;endSize=12;" parent="1" source="jMFiFp2JRC3NRYyeH_Bl-186" target="jMFiFp2JRC3NRYyeH_Bl-103" edge="1">
          <mxGeometry relative="1" as="geometry">
            <mxPoint x="700" y="-60" as="targetPoint" />
            <Array as="points">
              <mxPoint x="810" y="149" />
              <mxPoint x="810" y="-81" />
            </Array>
          </mxGeometry>
        </mxCell>
        <mxCell id="jMFiFp2JRC3NRYyeH_Bl-205" style="edgeStyle=orthogonalEdgeStyle;rounded=0;orthogonalLoop=1;jettySize=auto;html=1;fontSize=18;endArrow=diamondThin;endFill=0;dashed=1;strokeWidth=2;endSize=12;" parent="1" source="jMFiFp2JRC3NRYyeH_Bl-186" target="jMFiFp2JRC3NRYyeH_Bl-19" edge="1">
          <mxGeometry relative="1" as="geometry" />
        </mxCell>
        <mxCell id="jMFiFp2JRC3NRYyeH_Bl-206" style="edgeStyle=orthogonalEdgeStyle;rounded=0;orthogonalLoop=1;jettySize=auto;html=1;exitX=0.157;exitY=0.003;exitDx=0;exitDy=0;fontSize=18;endArrow=diamondThin;endFill=0;dashed=1;endSize=12;strokeWidth=2;exitPerimeter=0;" parent="1" source="jMFiFp2JRC3NRYyeH_Bl-185" target="jMFiFp2JRC3NRYyeH_Bl-39" edge="1">
          <mxGeometry relative="1" as="geometry">
            <Array as="points">
              <mxPoint x="615" y="100" />
              <mxPoint x="615" y="-284" />
            </Array>
          </mxGeometry>
        </mxCell>
        <mxCell id="jMFiFp2JRC3NRYyeH_Bl-185" value="Approvals" style="swimlane;html=1;fontStyle=1;align=center;verticalAlign=top;childLayout=stackLayout;horizontal=1;startSize=26;horizontalStack=0;resizeParent=1;resizeLast=0;collapsible=1;marginBottom=0;swimlaneFillColor=#ffffff;rounded=0;shadow=0;comic=0;labelBackgroundColor=none;strokeWidth=1;fillColor=none;fontFamily=Verdana;fontSize=12" parent="1" vertex="1">
          <mxGeometry x="590" y="110" width="160" height="242" as="geometry" />
        </mxCell>
        <mxCell id="jMFiFp2JRC3NRYyeH_Bl-186" value="+ field: approver" style="text;html=1;strokeColor=none;fillColor=none;align=left;verticalAlign=top;spacingLeft=2;spacingRight=1;whiteSpace=wrap;overflow=hidden;rotatable=0;points=[[0,0.5],[1,0.5]];portConstraint=eastwest;" parent="jMFiFp2JRC3NRYyeH_Bl-185" vertex="1">
          <mxGeometry y="26" width="160" height="26" as="geometry" />
        </mxCell>
        <mxCell id="jMFiFp2JRC3NRYyeH_Bl-187" value="+ field: headcounts" style="text;html=1;strokeColor=none;fillColor=none;align=left;verticalAlign=top;spacingLeft=2;spacingRight=1;whiteSpace=wrap;overflow=hidden;rotatable=0;points=[[0,0.5],[1,0.5]];portConstraint=eastwest;" parent="jMFiFp2JRC3NRYyeH_Bl-185" vertex="1">
          <mxGeometry y="52" width="160" height="26" as="geometry" />
        </mxCell>
        <mxCell id="jMFiFp2JRC3NRYyeH_Bl-188" value="+ field: company" style="text;html=1;strokeColor=none;fillColor=none;align=left;verticalAlign=top;spacingLeft=2;spacingRight=1;whiteSpace=wrap;overflow=hidden;rotatable=0;points=[[0,0.5],[1,0.5]];portConstraint=eastwest;" parent="jMFiFp2JRC3NRYyeH_Bl-185" vertex="1">
          <mxGeometry y="78" width="160" height="26" as="geometry" />
        </mxCell>
        <mxCell id="jMFiFp2JRC3NRYyeH_Bl-189" value="+ field: current_period" style="text;html=1;strokeColor=none;fillColor=none;align=left;verticalAlign=top;spacingLeft=2;spacingRight=1;whiteSpace=wrap;overflow=hidden;rotatable=0;points=[[0,0.5],[1,0.5]];portConstraint=eastwest;" parent="jMFiFp2JRC3NRYyeH_Bl-185" vertex="1">
          <mxGeometry y="104" width="160" height="26" as="geometry" />
        </mxCell>
        <mxCell id="jMFiFp2JRC3NRYyeH_Bl-190" value="+ field: project" style="text;html=1;strokeColor=none;fillColor=none;align=left;verticalAlign=top;spacingLeft=2;spacingRight=1;whiteSpace=wrap;overflow=hidden;rotatable=0;points=[[0,0.5],[1,0.5]];portConstraint=eastwest;" parent="jMFiFp2JRC3NRYyeH_Bl-185" vertex="1">
          <mxGeometry y="130" width="160" height="26" as="geometry" />
        </mxCell>
        <mxCell id="jMFiFp2JRC3NRYyeH_Bl-191" value="+ field: price" style="text;html=1;strokeColor=none;fillColor=none;align=left;verticalAlign=top;spacingLeft=2;spacingRight=1;whiteSpace=wrap;overflow=hidden;rotatable=0;points=[[0,0.5],[1,0.5]];portConstraint=eastwest;" parent="jMFiFp2JRC3NRYyeH_Bl-185" vertex="1">
          <mxGeometry y="156" width="160" height="26" as="geometry" />
        </mxCell>
        <mxCell id="jMFiFp2JRC3NRYyeH_Bl-192" value="+ field: tot_hours" style="text;html=1;strokeColor=none;fillColor=none;align=left;verticalAlign=top;spacingLeft=2;spacingRight=1;whiteSpace=wrap;overflow=hidden;rotatable=0;points=[[0,0.5],[1,0.5]];portConstraint=eastwest;" parent="jMFiFp2JRC3NRYyeH_Bl-185" vertex="1">
          <mxGeometry y="182" width="160" height="26" as="geometry" />
        </mxCell>
        <mxCell id="jMFiFp2JRC3NRYyeH_Bl-198" value="" style="line;html=1;strokeWidth=1;fillColor=none;align=left;verticalAlign=middle;spacingTop=-1;spacingLeft=3;spacingRight=3;rotatable=0;labelPosition=right;points=[];portConstraint=eastwest;" parent="jMFiFp2JRC3NRYyeH_Bl-185" vertex="1">
          <mxGeometry y="208" width="160" height="8" as="geometry" />
        </mxCell>
        <mxCell id="jMFiFp2JRC3NRYyeH_Bl-199" value="+ method(type): type" style="text;html=1;strokeColor=none;fillColor=none;align=left;verticalAlign=top;spacingLeft=4;spacingRight=4;whiteSpace=wrap;overflow=hidden;rotatable=0;points=[[0,0.5],[1,0.5]];portConstraint=eastwest;" parent="jMFiFp2JRC3NRYyeH_Bl-185" vertex="1">
          <mxGeometry y="216" width="160" height="26" as="geometry" />
        </mxCell>
        <mxCell id="jMFiFp2JRC3NRYyeH_Bl-203" style="edgeStyle=orthogonalEdgeStyle;rounded=0;orthogonalLoop=1;jettySize=auto;html=1;fontSize=18;endArrow=diamondThin;endFill=0;exitX=0;exitY=0.5;exitDx=0;exitDy=0;dashed=1;strokeWidth=2;startSize=12;endSize=12;" parent="1" source="jMFiFp2JRC3NRYyeH_Bl-187" target="jMFiFp2JRC3NRYyeH_Bl-114" edge="1">
          <mxGeometry relative="1" as="geometry">
            <mxPoint x="530" y="190" as="sourcePoint" />
            <Array as="points" />
          </mxGeometry>
        </mxCell>
        <mxCell id="jMFiFp2JRC3NRYyeH_Bl-207" value="Opportunity" style="swimlane;html=1;fontStyle=1;align=center;verticalAlign=top;childLayout=stackLayout;horizontal=1;startSize=26;horizontalStack=0;resizeParent=1;resizeLast=0;collapsible=1;marginBottom=0;swimlaneFillColor=#ffffff;rounded=0;shadow=0;comic=0;labelBackgroundColor=none;strokeWidth=1;fillColor=none;fontFamily=Verdana;fontSize=12" parent="1" vertex="1">
          <mxGeometry x="371" y="-1144" width="160" height="398" as="geometry" />
        </mxCell>
        <mxCell id="jMFiFp2JRC3NRYyeH_Bl-223" value="+ field: user" style="text;html=1;strokeColor=none;fillColor=none;align=left;verticalAlign=top;spacingLeft=2;spacingRight=1;whiteSpace=wrap;overflow=hidden;rotatable=0;points=[[0,0.5],[1,0.5]];portConstraint=eastwest;" parent="jMFiFp2JRC3NRYyeH_Bl-207" vertex="1">
          <mxGeometry y="26" width="160" height="26" as="geometry" />
        </mxCell>
        <mxCell id="jMFiFp2JRC3NRYyeH_Bl-208" value="+ field: company" style="text;html=1;strokeColor=none;fillColor=none;align=left;verticalAlign=top;spacingLeft=2;spacingRight=1;whiteSpace=wrap;overflow=hidden;rotatable=0;points=[[0,0.5],[1,0.5]];portConstraint=eastwest;" parent="jMFiFp2JRC3NRYyeH_Bl-207" vertex="1">
          <mxGeometry y="52" width="160" height="26" as="geometry" />
        </mxCell>
        <mxCell id="jMFiFp2JRC3NRYyeH_Bl-209" value="+ field: contact" style="text;html=1;strokeColor=none;fillColor=none;align=left;verticalAlign=top;spacingLeft=2;spacingRight=1;whiteSpace=wrap;overflow=hidden;rotatable=0;points=[[0,0.5],[1,0.5]];portConstraint=eastwest;" parent="jMFiFp2JRC3NRYyeH_Bl-207" vertex="1">
          <mxGeometry y="78" width="160" height="26" as="geometry" />
        </mxCell>
        <mxCell id="jMFiFp2JRC3NRYyeH_Bl-210" value="+ field: cnpj ?" style="text;html=1;strokeColor=none;fillColor=none;align=left;verticalAlign=top;spacingLeft=2;spacingRight=1;whiteSpace=wrap;overflow=hidden;rotatable=0;points=[[0,0.5],[1,0.5]];portConstraint=eastwest;" parent="jMFiFp2JRC3NRYyeH_Bl-207" vertex="1">
          <mxGeometry y="104" width="160" height="26" as="geometry" />
        </mxCell>
        <mxCell id="jMFiFp2JRC3NRYyeH_Bl-211" value="+ field: email" style="text;html=1;strokeColor=none;fillColor=none;align=left;verticalAlign=top;spacingLeft=2;spacingRight=1;whiteSpace=wrap;overflow=hidden;rotatable=0;points=[[0,0.5],[1,0.5]];portConstraint=eastwest;" parent="jMFiFp2JRC3NRYyeH_Bl-207" vertex="1">
          <mxGeometry y="130" width="160" height="26" as="geometry" />
        </mxCell>
        <mxCell id="jMFiFp2JRC3NRYyeH_Bl-212" value="+ field: telefone" style="text;html=1;strokeColor=none;fillColor=none;align=left;verticalAlign=top;spacingLeft=2;spacingRight=1;whiteSpace=wrap;overflow=hidden;rotatable=0;points=[[0,0.5],[1,0.5]];portConstraint=eastwest;" parent="jMFiFp2JRC3NRYyeH_Bl-207" vertex="1">
          <mxGeometry y="156" width="160" height="26" as="geometry" />
        </mxCell>
        <mxCell id="jMFiFp2JRC3NRYyeH_Bl-213" value="+ field: linkedin" style="text;html=1;strokeColor=none;fillColor=none;align=left;verticalAlign=top;spacingLeft=2;spacingRight=1;whiteSpace=wrap;overflow=hidden;rotatable=0;points=[[0,0.5],[1,0.5]];portConstraint=eastwest;" parent="jMFiFp2JRC3NRYyeH_Bl-207" vertex="1">
          <mxGeometry y="182" width="160" height="26" as="geometry" />
        </mxCell>
        <mxCell id="jMFiFp2JRC3NRYyeH_Bl-214" value="+ field: indicated_by" style="text;html=1;strokeColor=none;fillColor=none;align=left;verticalAlign=top;spacingLeft=2;spacingRight=1;whiteSpace=wrap;overflow=hidden;rotatable=0;points=[[0,0.5],[1,0.5]];portConstraint=eastwest;" parent="jMFiFp2JRC3NRYyeH_Bl-207" vertex="1">
          <mxGeometry y="208" width="160" height="26" as="geometry" />
        </mxCell>
        <mxCell id="jMFiFp2JRC3NRYyeH_Bl-215" value="+ field: nunber_vacancies" style="text;html=1;strokeColor=none;fillColor=none;align=left;verticalAlign=top;spacingLeft=2;spacingRight=1;whiteSpace=wrap;overflow=hidden;rotatable=0;points=[[0,0.5],[1,0.5]];portConstraint=eastwest;" parent="jMFiFp2JRC3NRYyeH_Bl-207" vertex="1">
          <mxGeometry y="234" width="160" height="26" as="geometry" />
        </mxCell>
        <mxCell id="jMFiFp2JRC3NRYyeH_Bl-221" value="+ field: contract_budget" style="text;html=1;strokeColor=none;fillColor=none;align=left;verticalAlign=top;spacingLeft=2;spacingRight=1;whiteSpace=wrap;overflow=hidden;rotatable=0;points=[[0,0.5],[1,0.5]];portConstraint=eastwest;" parent="jMFiFp2JRC3NRYyeH_Bl-207" vertex="1">
          <mxGeometry y="260" width="160" height="26" as="geometry" />
        </mxCell>
        <mxCell id="jMFiFp2JRC3NRYyeH_Bl-220" value="+ field: comments (text)" style="text;html=1;strokeColor=none;fillColor=none;align=left;verticalAlign=top;spacingLeft=2;spacingRight=1;whiteSpace=wrap;overflow=hidden;rotatable=0;points=[[0,0.5],[1,0.5]];portConstraint=eastwest;" parent="jMFiFp2JRC3NRYyeH_Bl-207" vertex="1">
          <mxGeometry y="286" width="160" height="26" as="geometry" />
        </mxCell>
        <mxCell id="jMFiFp2JRC3NRYyeH_Bl-224" value="+ field: next_contract" style="text;html=1;strokeColor=none;fillColor=none;align=left;verticalAlign=top;spacingLeft=2;spacingRight=1;whiteSpace=wrap;overflow=hidden;rotatable=0;points=[[0,0.5],[1,0.5]];portConstraint=eastwest;" parent="jMFiFp2JRC3NRYyeH_Bl-207" vertex="1">
          <mxGeometry y="312" width="160" height="26" as="geometry" />
        </mxCell>
        <mxCell id="rH244jGWuoNOTUHvpokT-20" value="+ field: status" style="text;html=1;strokeColor=none;fillColor=none;align=left;verticalAlign=top;spacingLeft=2;spacingRight=1;whiteSpace=wrap;overflow=hidden;rotatable=0;points=[[0,0.5],[1,0.5]];portConstraint=eastwest;" parent="jMFiFp2JRC3NRYyeH_Bl-207" vertex="1">
          <mxGeometry y="338" width="160" height="26" as="geometry" />
        </mxCell>
        <mxCell id="jMFiFp2JRC3NRYyeH_Bl-216" value="" style="line;html=1;strokeWidth=1;fillColor=none;align=left;verticalAlign=middle;spacingTop=-1;spacingLeft=3;spacingRight=3;rotatable=0;labelPosition=right;points=[];portConstraint=eastwest;" parent="jMFiFp2JRC3NRYyeH_Bl-207" vertex="1">
          <mxGeometry y="364" width="160" height="8" as="geometry" />
        </mxCell>
        <mxCell id="jMFiFp2JRC3NRYyeH_Bl-217" value="+ method(type): type" style="text;html=1;strokeColor=none;fillColor=none;align=left;verticalAlign=top;spacingLeft=4;spacingRight=4;whiteSpace=wrap;overflow=hidden;rotatable=0;points=[[0,0.5],[1,0.5]];portConstraint=eastwest;" parent="jMFiFp2JRC3NRYyeH_Bl-207" vertex="1">
          <mxGeometry y="372" width="160" height="26" as="geometry" />
        </mxCell>
        <mxCell id="jMFiFp2JRC3NRYyeH_Bl-218" value="" style="endArrow=none;html=1;fontSize=27;endSize=12;" parent="1" edge="1">
          <mxGeometry width="50" height="50" relative="1" as="geometry">
            <mxPoint x="360" y="-1174" as="sourcePoint" />
            <mxPoint x="1050" y="-1174" as="targetPoint" />
            <Array as="points">
              <mxPoint x="580" y="-1174" />
            </Array>
          </mxGeometry>
        </mxCell>
        <mxCell id="jMFiFp2JRC3NRYyeH_Bl-219" value="Business" style="edgeLabel;html=1;align=center;verticalAlign=middle;resizable=0;points=[];fontSize=27;" parent="jMFiFp2JRC3NRYyeH_Bl-218" vertex="1" connectable="0">
          <mxGeometry x="0.0247" y="1" relative="1" as="geometry">
            <mxPoint as="offset" />
          </mxGeometry>
        </mxCell>
        <mxCell id="jMFiFp2JRC3NRYyeH_Bl-225" value="ContractSimulation" style="swimlane;html=1;fontStyle=1;align=center;verticalAlign=top;childLayout=stackLayout;horizontal=1;startSize=26;horizontalStack=0;resizeParent=1;resizeLast=0;collapsible=1;marginBottom=0;swimlaneFillColor=#ffffff;rounded=0;shadow=0;comic=0;labelBackgroundColor=none;strokeWidth=1;fillColor=none;fontFamily=Verdana;fontSize=12" parent="1" vertex="1">
          <mxGeometry x="630" y="-1144" width="160" height="208" as="geometry" />
        </mxCell>
        <mxCell id="jMFiFp2JRC3NRYyeH_Bl-226" value="+ field: user" style="text;html=1;strokeColor=none;fillColor=none;align=left;verticalAlign=top;spacingLeft=2;spacingRight=1;whiteSpace=wrap;overflow=hidden;rotatable=0;points=[[0,0.5],[1,0.5]];portConstraint=eastwest;" parent="jMFiFp2JRC3NRYyeH_Bl-225" vertex="1">
          <mxGeometry y="26" width="160" height="26" as="geometry" />
        </mxCell>
        <mxCell id="jMFiFp2JRC3NRYyeH_Bl-227" value="+ field: proposal" style="text;html=1;strokeColor=none;fillColor=none;align=left;verticalAlign=top;spacingLeft=2;spacingRight=1;whiteSpace=wrap;overflow=hidden;rotatable=0;points=[[0,0.5],[1,0.5]];portConstraint=eastwest;" parent="jMFiFp2JRC3NRYyeH_Bl-225" vertex="1">
          <mxGeometry y="52" width="160" height="26" as="geometry" />
        </mxCell>
        <mxCell id="jMFiFp2JRC3NRYyeH_Bl-228" value="+ field: contact" style="text;html=1;strokeColor=none;fillColor=none;align=left;verticalAlign=top;spacingLeft=2;spacingRight=1;whiteSpace=wrap;overflow=hidden;rotatable=0;points=[[0,0.5],[1,0.5]];portConstraint=eastwest;" parent="jMFiFp2JRC3NRYyeH_Bl-225" vertex="1">
          <mxGeometry y="78" width="160" height="26" as="geometry" />
        </mxCell>
        <mxCell id="jMFiFp2JRC3NRYyeH_Bl-229" value="+ field: contract_duration" style="text;html=1;strokeColor=none;fillColor=none;align=left;verticalAlign=top;spacingLeft=2;spacingRight=1;whiteSpace=wrap;overflow=hidden;rotatable=0;points=[[0,0.5],[1,0.5]];portConstraint=eastwest;" parent="jMFiFp2JRC3NRYyeH_Bl-225" vertex="1">
          <mxGeometry y="104" width="160" height="26" as="geometry" />
        </mxCell>
        <mxCell id="jMFiFp2JRC3NRYyeH_Bl-230" value="+ field: date_simulation" style="text;html=1;strokeColor=none;fillColor=none;align=left;verticalAlign=top;spacingLeft=2;spacingRight=1;whiteSpace=wrap;overflow=hidden;rotatable=0;points=[[0,0.5],[1,0.5]];portConstraint=eastwest;" parent="jMFiFp2JRC3NRYyeH_Bl-225" vertex="1">
          <mxGeometry y="130" width="160" height="26" as="geometry" />
        </mxCell>
        <mxCell id="jMFiFp2JRC3NRYyeH_Bl-231" value="+ field: type_contract" style="text;html=1;strokeColor=none;fillColor=none;align=left;verticalAlign=top;spacingLeft=2;spacingRight=1;whiteSpace=wrap;overflow=hidden;rotatable=0;points=[[0,0.5],[1,0.5]];portConstraint=eastwest;" parent="jMFiFp2JRC3NRYyeH_Bl-225" vertex="1">
          <mxGeometry y="156" width="160" height="26" as="geometry" />
        </mxCell>
        <mxCell id="jMFiFp2JRC3NRYyeH_Bl-232" value="+ field: status" style="text;html=1;strokeColor=none;fillColor=none;align=left;verticalAlign=top;spacingLeft=2;spacingRight=1;whiteSpace=wrap;overflow=hidden;rotatable=0;points=[[0,0.5],[1,0.5]];portConstraint=eastwest;" parent="jMFiFp2JRC3NRYyeH_Bl-225" vertex="1">
          <mxGeometry y="182" width="160" height="26" as="geometry" />
        </mxCell>
        <mxCell id="jMFiFp2JRC3NRYyeH_Bl-240" style="edgeStyle=orthogonalEdgeStyle;rounded=0;orthogonalLoop=1;jettySize=auto;html=1;fontSize=27;endArrow=diamondThin;endFill=0;endSize=12;" parent="1" source="jMFiFp2JRC3NRYyeH_Bl-227" target="jMFiFp2JRC3NRYyeH_Bl-223" edge="1">
          <mxGeometry relative="1" as="geometry" />
        </mxCell>
        <mxCell id="jMFiFp2JRC3NRYyeH_Bl-241" value="FK" style="edgeLabel;html=1;align=center;verticalAlign=middle;resizable=0;points=[];fontSize=27;" parent="jMFiFp2JRC3NRYyeH_Bl-240" vertex="1" connectable="0">
          <mxGeometry x="-0.1941" y="1" relative="1" as="geometry">
            <mxPoint as="offset" />
          </mxGeometry>
        </mxCell>
        <mxCell id="jMFiFp2JRC3NRYyeH_Bl-242" value="VacancieSimulation" style="swimlane;html=1;fontStyle=1;align=center;verticalAlign=top;childLayout=stackLayout;horizontal=1;startSize=26;horizontalStack=0;resizeParent=1;resizeLast=0;collapsible=1;marginBottom=0;swimlaneFillColor=#ffffff;rounded=0;shadow=0;comic=0;labelBackgroundColor=none;strokeWidth=1;fillColor=none;fontFamily=Verdana;fontSize=12" parent="1" vertex="1">
          <mxGeometry x="883" y="-1144" width="160" height="216" as="geometry" />
        </mxCell>
        <mxCell id="jMFiFp2JRC3NRYyeH_Bl-243" value="+ field: contract" style="text;html=1;strokeColor=none;fillColor=none;align=left;verticalAlign=top;spacingLeft=2;spacingRight=1;whiteSpace=wrap;overflow=hidden;rotatable=0;points=[[0,0.5],[1,0.5]];portConstraint=eastwest;" parent="jMFiFp2JRC3NRYyeH_Bl-242" vertex="1">
          <mxGeometry y="26" width="160" height="26" as="geometry" />
        </mxCell>
        <mxCell id="jMFiFp2JRC3NRYyeH_Bl-244" value="+ field: vacancie" style="text;html=1;strokeColor=none;fillColor=none;align=left;verticalAlign=top;spacingLeft=2;spacingRight=1;whiteSpace=wrap;overflow=hidden;rotatable=0;points=[[0,0.5],[1,0.5]];portConstraint=eastwest;" parent="jMFiFp2JRC3NRYyeH_Bl-242" vertex="1">
          <mxGeometry y="52" width="160" height="26" as="geometry" />
        </mxCell>
        <mxCell id="jMFiFp2JRC3NRYyeH_Bl-245" value="+ field: budget_salary" style="text;html=1;strokeColor=none;fillColor=none;align=left;verticalAlign=top;spacingLeft=2;spacingRight=1;whiteSpace=wrap;overflow=hidden;rotatable=0;points=[[0,0.5],[1,0.5]];portConstraint=eastwest;" parent="jMFiFp2JRC3NRYyeH_Bl-242" vertex="1">
          <mxGeometry y="78" width="160" height="26" as="geometry" />
        </mxCell>
        <mxCell id="jMFiFp2JRC3NRYyeH_Bl-246" value="+ field: margin" style="text;html=1;strokeColor=none;fillColor=none;align=left;verticalAlign=top;spacingLeft=2;spacingRight=1;whiteSpace=wrap;overflow=hidden;rotatable=0;points=[[0,0.5],[1,0.5]];portConstraint=eastwest;" parent="jMFiFp2JRC3NRYyeH_Bl-242" vertex="1">
          <mxGeometry y="104" width="160" height="26" as="geometry" />
        </mxCell>
        <mxCell id="jMFiFp2JRC3NRYyeH_Bl-247" value="+ field: forecast_start" style="text;html=1;strokeColor=none;fillColor=none;align=left;verticalAlign=top;spacingLeft=2;spacingRight=1;whiteSpace=wrap;overflow=hidden;rotatable=0;points=[[0,0.5],[1,0.5]];portConstraint=eastwest;" parent="jMFiFp2JRC3NRYyeH_Bl-242" vertex="1">
          <mxGeometry y="130" width="160" height="26" as="geometry" />
        </mxCell>
        <mxCell id="rH244jGWuoNOTUHvpokT-38" value="+ field: comment_simulation" style="text;html=1;strokeColor=none;fillColor=none;align=left;verticalAlign=top;spacingLeft=2;spacingRight=1;whiteSpace=wrap;overflow=hidden;rotatable=0;points=[[0,0.5],[1,0.5]];portConstraint=eastwest;" parent="jMFiFp2JRC3NRYyeH_Bl-242" vertex="1">
          <mxGeometry y="156" width="160" height="26" as="geometry" />
        </mxCell>
        <mxCell id="jMFiFp2JRC3NRYyeH_Bl-255" value="" style="line;html=1;strokeWidth=1;fillColor=none;align=left;verticalAlign=middle;spacingTop=-1;spacingLeft=3;spacingRight=3;rotatable=0;labelPosition=right;points=[];portConstraint=eastwest;" parent="jMFiFp2JRC3NRYyeH_Bl-242" vertex="1">
          <mxGeometry y="182" width="160" height="8" as="geometry" />
        </mxCell>
        <mxCell id="jMFiFp2JRC3NRYyeH_Bl-256" value="+ method(type): type" style="text;html=1;strokeColor=none;fillColor=none;align=left;verticalAlign=top;spacingLeft=4;spacingRight=4;whiteSpace=wrap;overflow=hidden;rotatable=0;points=[[0,0.5],[1,0.5]];portConstraint=eastwest;" parent="jMFiFp2JRC3NRYyeH_Bl-242" vertex="1">
          <mxGeometry y="190" width="160" height="26" as="geometry" />
        </mxCell>
        <mxCell id="jMFiFp2JRC3NRYyeH_Bl-257" style="edgeStyle=orthogonalEdgeStyle;rounded=0;orthogonalLoop=1;jettySize=auto;html=1;fontSize=27;endArrow=diamondThin;endFill=0;endSize=12;" parent="1" source="jMFiFp2JRC3NRYyeH_Bl-243" target="jMFiFp2JRC3NRYyeH_Bl-226" edge="1">
          <mxGeometry relative="1" as="geometry" />
        </mxCell>
        <mxCell id="jMFiFp2JRC3NRYyeH_Bl-258" value="FK" style="edgeLabel;html=1;align=center;verticalAlign=middle;resizable=0;points=[];fontSize=27;" parent="jMFiFp2JRC3NRYyeH_Bl-257" vertex="1" connectable="0">
          <mxGeometry x="-0.3" y="1" relative="1" as="geometry">
            <mxPoint x="-11" as="offset" />
          </mxGeometry>
        </mxCell>
        <mxCell id="rH244jGWuoNOTUHvpokT-1" value="Schedule" style="swimlane;html=1;fontStyle=1;align=center;verticalAlign=top;childLayout=stackLayout;horizontal=1;startSize=26;horizontalStack=0;resizeParent=1;resizeLast=0;collapsible=1;marginBottom=0;swimlaneFillColor=#ffffff;rounded=0;shadow=0;comic=0;labelBackgroundColor=none;strokeWidth=1;fillColor=none;fontFamily=Verdana;fontSize=12" parent="1" vertex="1">
          <mxGeometry x="630" y="-929" width="160" height="184" as="geometry" />
        </mxCell>
        <mxCell id="rH244jGWuoNOTUHvpokT-2" value="+ field: Opportunity" style="text;html=1;strokeColor=none;fillColor=none;align=left;verticalAlign=top;spacingLeft=2;spacingRight=1;whiteSpace=wrap;overflow=hidden;rotatable=0;points=[[0,0.5],[1,0.5]];portConstraint=eastwest;" parent="rH244jGWuoNOTUHvpokT-1" vertex="1">
          <mxGeometry y="26" width="160" height="26" as="geometry" />
        </mxCell>
        <mxCell id="rH244jGWuoNOTUHvpokT-3" value="+ field: day_contact" style="text;html=1;strokeColor=none;fillColor=none;align=left;verticalAlign=top;spacingLeft=2;spacingRight=1;whiteSpace=wrap;overflow=hidden;rotatable=0;points=[[0,0.5],[1,0.5]];portConstraint=eastwest;" parent="rH244jGWuoNOTUHvpokT-1" vertex="1">
          <mxGeometry y="52" width="160" height="26" as="geometry" />
        </mxCell>
        <mxCell id="rH244jGWuoNOTUHvpokT-4" value="+ field: contacted" style="text;html=1;strokeColor=none;fillColor=none;align=left;verticalAlign=top;spacingLeft=2;spacingRight=1;whiteSpace=wrap;overflow=hidden;rotatable=0;points=[[0,0.5],[1,0.5]];portConstraint=eastwest;" parent="rH244jGWuoNOTUHvpokT-1" vertex="1">
          <mxGeometry y="78" width="160" height="26" as="geometry" />
        </mxCell>
        <mxCell id="rH244jGWuoNOTUHvpokT-5" value="+ field: contactee" style="text;html=1;strokeColor=none;fillColor=none;align=left;verticalAlign=top;spacingLeft=2;spacingRight=1;whiteSpace=wrap;overflow=hidden;rotatable=0;points=[[0,0.5],[1,0.5]];portConstraint=eastwest;" parent="rH244jGWuoNOTUHvpokT-1" vertex="1">
          <mxGeometry y="104" width="160" height="26" as="geometry" />
        </mxCell>
        <mxCell id="rH244jGWuoNOTUHvpokT-10" value="+ field: contact_content" style="text;html=1;strokeColor=none;fillColor=none;align=left;verticalAlign=top;spacingLeft=2;spacingRight=1;whiteSpace=wrap;overflow=hidden;rotatable=0;points=[[0,0.5],[1,0.5]];portConstraint=eastwest;" parent="rH244jGWuoNOTUHvpokT-1" vertex="1">
          <mxGeometry y="130" width="160" height="26" as="geometry" />
        </mxCell>
        <mxCell id="rH244jGWuoNOTUHvpokT-11" value="+ field: type_contact" style="text;html=1;strokeColor=none;fillColor=none;align=left;verticalAlign=top;spacingLeft=2;spacingRight=1;whiteSpace=wrap;overflow=hidden;rotatable=0;points=[[0,0.5],[1,0.5]];portConstraint=eastwest;" parent="rH244jGWuoNOTUHvpokT-1" vertex="1">
          <mxGeometry y="156" width="160" height="26" as="geometry" />
        </mxCell>
        <mxCell id="rH244jGWuoNOTUHvpokT-8" style="edgeStyle=orthogonalEdgeStyle;rounded=0;orthogonalLoop=1;jettySize=auto;html=1;endArrow=diamondThin;endFill=0;endSize=12;" parent="1" source="rH244jGWuoNOTUHvpokT-2" target="jMFiFp2JRC3NRYyeH_Bl-210" edge="1">
          <mxGeometry relative="1" as="geometry" />
        </mxCell>
        <mxCell id="rH244jGWuoNOTUHvpokT-9" value="FK" style="edgeLabel;html=1;align=center;verticalAlign=middle;resizable=0;points=[];fontSize=27;" parent="rH244jGWuoNOTUHvpokT-8" vertex="1" connectable="0">
          <mxGeometry x="-0.3293" relative="1" as="geometry">
            <mxPoint as="offset" />
          </mxGeometry>
        </mxCell>
        <mxCell id="rH244jGWuoNOTUHvpokT-12" value="Status" style="swimlane;html=1;fontStyle=1;align=center;verticalAlign=top;childLayout=stackLayout;horizontal=1;startSize=26;horizontalStack=0;resizeParent=1;resizeLast=0;collapsible=1;marginBottom=0;swimlaneFillColor=#ffffff;rounded=0;shadow=0;comic=0;labelBackgroundColor=none;strokeWidth=1;fillColor=none;fontFamily=Verdana;fontSize=12" parent="1" vertex="1">
          <mxGeometry x="371" y="-709" width="160" height="60" as="geometry" />
        </mxCell>
        <mxCell id="rH244jGWuoNOTUHvpokT-13" value="+ field: status" style="text;html=1;strokeColor=none;fillColor=none;align=left;verticalAlign=top;spacingLeft=2;spacingRight=1;whiteSpace=wrap;overflow=hidden;rotatable=0;points=[[0,0.5],[1,0.5]];portConstraint=eastwest;" parent="rH244jGWuoNOTUHvpokT-12" vertex="1">
          <mxGeometry y="26" width="160" height="26" as="geometry" />
        </mxCell>
        <mxCell id="rH244jGWuoNOTUHvpokT-22" style="edgeStyle=orthogonalEdgeStyle;rounded=0;orthogonalLoop=1;jettySize=auto;html=1;fontSize=27;endArrow=diamondThin;endFill=0;endSize=12;" parent="1" source="rH244jGWuoNOTUHvpokT-20" target="rH244jGWuoNOTUHvpokT-13" edge="1">
          <mxGeometry relative="1" as="geometry">
            <Array as="points">
              <mxPoint x="340" y="-793" />
              <mxPoint x="340" y="-670" />
            </Array>
          </mxGeometry>
        </mxCell>
        <mxCell id="rH244jGWuoNOTUHvpokT-27" value="FK" style="edgeLabel;html=1;align=center;verticalAlign=middle;resizable=0;points=[];fontSize=27;" parent="rH244jGWuoNOTUHvpokT-22" vertex="1" connectable="0">
          <mxGeometry x="0.1532" y="2" relative="1" as="geometry">
            <mxPoint y="-9" as="offset" />
          </mxGeometry>
        </mxCell>
        <mxCell id="rH244jGWuoNOTUHvpokT-23" value="TypeContact" style="swimlane;html=1;fontStyle=1;align=center;verticalAlign=top;childLayout=stackLayout;horizontal=1;startSize=26;horizontalStack=0;resizeParent=1;resizeLast=0;collapsible=1;marginBottom=0;swimlaneFillColor=#ffffff;rounded=0;shadow=0;comic=0;labelBackgroundColor=none;strokeWidth=1;fillColor=none;fontFamily=Verdana;fontSize=12" parent="1" vertex="1">
          <mxGeometry x="870" y="-703" width="160" height="60" as="geometry" />
        </mxCell>
        <mxCell id="rH244jGWuoNOTUHvpokT-24" value="+ field: type_contact" style="text;html=1;strokeColor=none;fillColor=none;align=left;verticalAlign=top;spacingLeft=2;spacingRight=1;whiteSpace=wrap;overflow=hidden;rotatable=0;points=[[0,0.5],[1,0.5]];portConstraint=eastwest;" parent="rH244jGWuoNOTUHvpokT-23" vertex="1">
          <mxGeometry y="26" width="160" height="26" as="geometry" />
        </mxCell>
        <mxCell id="rH244jGWuoNOTUHvpokT-25" style="edgeStyle=orthogonalEdgeStyle;rounded=0;orthogonalLoop=1;jettySize=auto;html=1;fontSize=27;endArrow=diamondThin;endFill=0;endSize=12;" parent="1" source="rH244jGWuoNOTUHvpokT-11" target="rH244jGWuoNOTUHvpokT-24" edge="1">
          <mxGeometry relative="1" as="geometry" />
        </mxCell>
        <mxCell id="rH244jGWuoNOTUHvpokT-26" value="FK" style="edgeLabel;html=1;align=center;verticalAlign=middle;resizable=0;points=[];fontSize=27;" parent="rH244jGWuoNOTUHvpokT-25" vertex="1" connectable="0">
          <mxGeometry x="-0.151" y="-2" relative="1" as="geometry">
            <mxPoint as="offset" />
          </mxGeometry>
        </mxCell>
        <mxCell id="rH244jGWuoNOTUHvpokT-29" value="TypeContract" style="swimlane;html=1;fontStyle=1;align=center;verticalAlign=top;childLayout=stackLayout;horizontal=1;startSize=26;horizontalStack=0;resizeParent=1;resizeLast=0;collapsible=1;marginBottom=0;swimlaneFillColor=#ffffff;rounded=0;shadow=0;comic=0;labelBackgroundColor=none;strokeWidth=1;fillColor=none;fontFamily=Verdana;fontSize=12" parent="1" vertex="1">
          <mxGeometry x="880" y="-894" width="160" height="60" as="geometry" />
        </mxCell>
        <mxCell id="rH244jGWuoNOTUHvpokT-30" value="+ field: type_contract" style="text;html=1;strokeColor=none;fillColor=none;align=left;verticalAlign=top;spacingLeft=2;spacingRight=1;whiteSpace=wrap;overflow=hidden;rotatable=0;points=[[0,0.5],[1,0.5]];portConstraint=eastwest;" parent="rH244jGWuoNOTUHvpokT-29" vertex="1">
          <mxGeometry y="26" width="160" height="26" as="geometry" />
        </mxCell>
        <mxCell id="rH244jGWuoNOTUHvpokT-31" style="edgeStyle=orthogonalEdgeStyle;rounded=0;orthogonalLoop=1;jettySize=auto;html=1;fontSize=27;endArrow=diamondThin;endFill=0;startSize=12;endSize=12;" parent="1" source="jMFiFp2JRC3NRYyeH_Bl-231" target="rH244jGWuoNOTUHvpokT-30" edge="1">
          <mxGeometry relative="1" as="geometry" />
        </mxCell>
        <mxCell id="rH244jGWuoNOTUHvpokT-32" value="FK" style="edgeLabel;html=1;align=center;verticalAlign=middle;resizable=0;points=[];fontSize=27;" parent="rH244jGWuoNOTUHvpokT-31" vertex="1" connectable="0">
          <mxGeometry x="-0.2671" y="2" relative="1" as="geometry">
            <mxPoint y="20" as="offset" />
          </mxGeometry>
        </mxCell>
        <mxCell id="rH244jGWuoNOTUHvpokT-33" value="Vacancie" style="swimlane;html=1;fontStyle=1;align=center;verticalAlign=top;childLayout=stackLayout;horizontal=1;startSize=26;horizontalStack=0;resizeParent=1;resizeLast=0;collapsible=1;marginBottom=0;swimlaneFillColor=#ffffff;rounded=0;shadow=0;comic=0;labelBackgroundColor=none;strokeWidth=1;fillColor=none;fontFamily=Verdana;fontSize=12" parent="1" vertex="1">
          <mxGeometry x="880" y="-807" width="160" height="78" as="geometry" />
        </mxCell>
        <mxCell id="rH244jGWuoNOTUHvpokT-34" value="+ field: vacancie" style="text;html=1;strokeColor=none;fillColor=none;align=left;verticalAlign=top;spacingLeft=2;spacingRight=1;whiteSpace=wrap;overflow=hidden;rotatable=0;points=[[0,0.5],[1,0.5]];portConstraint=eastwest;" parent="rH244jGWuoNOTUHvpokT-33" vertex="1">
          <mxGeometry y="26" width="160" height="26" as="geometry" />
        </mxCell>
        <mxCell id="rH244jGWuoNOTUHvpokT-35" value="+ field: value" style="text;html=1;strokeColor=none;fillColor=none;align=left;verticalAlign=top;spacingLeft=2;spacingRight=1;whiteSpace=wrap;overflow=hidden;rotatable=0;points=[[0,0.5],[1,0.5]];portConstraint=eastwest;" parent="rH244jGWuoNOTUHvpokT-33" vertex="1">
          <mxGeometry y="52" width="160" height="26" as="geometry" />
        </mxCell>
        <mxCell id="rH244jGWuoNOTUHvpokT-36" style="edgeStyle=orthogonalEdgeStyle;rounded=0;orthogonalLoop=1;jettySize=auto;html=1;fontSize=27;endArrow=diamondThin;endFill=0;startSize=12;endSize=12;entryX=1.019;entryY=0.692;entryDx=0;entryDy=0;entryPerimeter=0;" parent="1" source="jMFiFp2JRC3NRYyeH_Bl-244" target="rH244jGWuoNOTUHvpokT-34" edge="1">
          <mxGeometry relative="1" as="geometry">
            <mxPoint x="1070" y="-733" as="targetPoint" />
            <Array as="points">
              <mxPoint x="1070" y="-1079" />
              <mxPoint x="1070" y="-763" />
            </Array>
          </mxGeometry>
        </mxCell>
        <mxCell id="rH244jGWuoNOTUHvpokT-37" value="FK" style="edgeLabel;html=1;align=center;verticalAlign=middle;resizable=0;points=[];fontSize=27;" parent="rH244jGWuoNOTUHvpokT-36" vertex="1" connectable="0">
          <mxGeometry x="-0.0843" y="2" relative="1" as="geometry">
            <mxPoint as="offset" />
          </mxGeometry>
        </mxCell>
        <mxCell id="rH244jGWuoNOTUHvpokT-39" style="edgeStyle=orthogonalEdgeStyle;rounded=0;orthogonalLoop=1;jettySize=auto;html=1;fontSize=27;endArrow=diamondThin;endFill=0;startSize=12;endSize=12;" parent="1" source="rH244jGWuoNOTUHvpokT-11" target="jMFiFp2JRC3NRYyeH_Bl-105" edge="1">
          <mxGeometry relative="1" as="geometry">
            <Array as="points">
              <mxPoint x="687" y="-730" />
              <mxPoint x="800" y="-730" />
              <mxPoint x="800" y="-420" />
              <mxPoint x="180" y="-420" />
            </Array>
            <mxPoint x="790" y="-709" as="sourcePoint" />
          </mxGeometry>
        </mxCell>
        <mxCell id="rH244jGWuoNOTUHvpokT-42" value="FK" style="edgeLabel;html=1;align=center;verticalAlign=middle;resizable=0;points=[];fontSize=27;" parent="rH244jGWuoNOTUHvpokT-39" vertex="1" connectable="0">
          <mxGeometry x="0.226" relative="1" as="geometry">
            <mxPoint as="offset" />
          </mxGeometry>
        </mxCell>
        <mxCell id="rH244jGWuoNOTUHvpokT-40" style="edgeStyle=orthogonalEdgeStyle;rounded=0;orthogonalLoop=1;jettySize=auto;html=1;fontSize=27;endArrow=diamondThin;endFill=0;startSize=12;endSize=12;" parent="1" source="jMFiFp2JRC3NRYyeH_Bl-223" edge="1">
          <mxGeometry relative="1" as="geometry">
            <mxPoint x="140" y="-47" as="targetPoint" />
            <Array as="points">
              <mxPoint x="140" y="-1105" />
            </Array>
          </mxGeometry>
        </mxCell>
        <mxCell id="rH244jGWuoNOTUHvpokT-41" value="FK" style="edgeLabel;html=1;align=center;verticalAlign=middle;resizable=0;points=[];fontSize=27;" parent="rH244jGWuoNOTUHvpokT-40" vertex="1" connectable="0">
          <mxGeometry x="-0.6093" y="-1" relative="1" as="geometry">
            <mxPoint as="offset" />
          </mxGeometry>
        </mxCell>
        <mxCell id="PosuNlRDcicZqqVFlq28-1" value="Indicated" style="swimlane;html=1;fontStyle=1;align=center;verticalAlign=top;childLayout=stackLayout;horizontal=1;startSize=26;horizontalStack=0;resizeParent=1;resizeLast=0;collapsible=1;marginBottom=0;swimlaneFillColor=#ffffff;rounded=0;shadow=0;comic=0;labelBackgroundColor=none;strokeWidth=1;fillColor=none;fontFamily=Verdana;fontSize=12" vertex="1" parent="1">
          <mxGeometry x="629.59" y="-719" width="160" height="286" as="geometry" />
        </mxCell>
        <mxCell id="PosuNlRDcicZqqVFlq28-12" value="+ field: opportunity" style="text;html=1;strokeColor=none;fillColor=none;align=left;verticalAlign=top;spacingLeft=2;spacingRight=1;whiteSpace=wrap;overflow=hidden;rotatable=0;points=[[0,0.5],[1,0.5]];portConstraint=eastwest;" vertex="1" parent="PosuNlRDcicZqqVFlq28-1">
          <mxGeometry y="26" width="160" height="26" as="geometry" />
        </mxCell>
        <mxCell id="PosuNlRDcicZqqVFlq28-2" value="+ field: CPF or CNPJ" style="text;html=1;strokeColor=none;fillColor=none;align=left;verticalAlign=top;spacingLeft=2;spacingRight=1;whiteSpace=wrap;overflow=hidden;rotatable=0;points=[[0,0.5],[1,0.5]];portConstraint=eastwest;" vertex="1" parent="PosuNlRDcicZqqVFlq28-1">
          <mxGeometry y="52" width="160" height="26" as="geometry" />
        </mxCell>
        <mxCell id="PosuNlRDcicZqqVFlq28-9" value="+ field: name" style="text;html=1;strokeColor=none;fillColor=none;align=left;verticalAlign=top;spacingLeft=2;spacingRight=1;whiteSpace=wrap;overflow=hidden;rotatable=0;points=[[0,0.5],[1,0.5]];portConstraint=eastwest;" vertex="1" parent="PosuNlRDcicZqqVFlq28-1">
          <mxGeometry y="78" width="160" height="26" as="geometry" />
        </mxCell>
        <mxCell id="PosuNlRDcicZqqVFlq28-3" value="+ field: type_account_bank" style="text;html=1;strokeColor=none;fillColor=none;align=left;verticalAlign=top;spacingLeft=2;spacingRight=1;whiteSpace=wrap;overflow=hidden;rotatable=0;points=[[0,0.5],[1,0.5]];portConstraint=eastwest;" vertex="1" parent="PosuNlRDcicZqqVFlq28-1">
          <mxGeometry y="104" width="160" height="26" as="geometry" />
        </mxCell>
        <mxCell id="PosuNlRDcicZqqVFlq28-4" value="+ field: bank" style="text;html=1;strokeColor=none;fillColor=none;align=left;verticalAlign=top;spacingLeft=2;spacingRight=1;whiteSpace=wrap;overflow=hidden;rotatable=0;points=[[0,0.5],[1,0.5]];portConstraint=eastwest;" vertex="1" parent="PosuNlRDcicZqqVFlq28-1">
          <mxGeometry y="130" width="160" height="26" as="geometry" />
        </mxCell>
        <mxCell id="PosuNlRDcicZqqVFlq28-5" value="+ field: agency" style="text;html=1;strokeColor=none;fillColor=none;align=left;verticalAlign=top;spacingLeft=2;spacingRight=1;whiteSpace=wrap;overflow=hidden;rotatable=0;points=[[0,0.5],[1,0.5]];portConstraint=eastwest;" vertex="1" parent="PosuNlRDcicZqqVFlq28-1">
          <mxGeometry y="156" width="160" height="26" as="geometry" />
        </mxCell>
        <mxCell id="PosuNlRDcicZqqVFlq28-6" value="+ field: account" style="text;html=1;strokeColor=none;fillColor=none;align=left;verticalAlign=top;spacingLeft=2;spacingRight=1;whiteSpace=wrap;overflow=hidden;rotatable=0;points=[[0,0.5],[1,0.5]];portConstraint=eastwest;" vertex="1" parent="PosuNlRDcicZqqVFlq28-1">
          <mxGeometry y="182" width="160" height="26" as="geometry" />
        </mxCell>
        <mxCell id="PosuNlRDcicZqqVFlq28-7" value="+ field: email" style="text;html=1;strokeColor=none;fillColor=none;align=left;verticalAlign=top;spacingLeft=2;spacingRight=1;whiteSpace=wrap;overflow=hidden;rotatable=0;points=[[0,0.5],[1,0.5]];portConstraint=eastwest;" vertex="1" parent="PosuNlRDcicZqqVFlq28-1">
          <mxGeometry y="208" width="160" height="26" as="geometry" />
        </mxCell>
        <mxCell id="PosuNlRDcicZqqVFlq28-8" value="+ field: phone_number" style="text;html=1;strokeColor=none;fillColor=none;align=left;verticalAlign=top;spacingLeft=2;spacingRight=1;whiteSpace=wrap;overflow=hidden;rotatable=0;points=[[0,0.5],[1,0.5]];portConstraint=eastwest;" vertex="1" parent="PosuNlRDcicZqqVFlq28-1">
          <mxGeometry y="234" width="160" height="26" as="geometry" />
        </mxCell>
        <mxCell id="PosuNlRDcicZqqVFlq28-10" value="+ field: opt_in" style="text;html=1;strokeColor=none;fillColor=none;align=left;verticalAlign=top;spacingLeft=2;spacingRight=1;whiteSpace=wrap;overflow=hidden;rotatable=0;points=[[0,0.5],[1,0.5]];portConstraint=eastwest;" vertex="1" parent="PosuNlRDcicZqqVFlq28-1">
          <mxGeometry y="260" width="160" height="26" as="geometry" />
        </mxCell>
        <mxCell id="PosuNlRDcicZqqVFlq28-11" style="edgeStyle=orthogonalEdgeStyle;rounded=0;orthogonalLoop=1;jettySize=auto;html=1;exitX=1;exitY=0.5;exitDx=0;exitDy=0;endArrow=diamondThin;endFill=0;endSize=12;" edge="1" parent="1">
          <mxGeometry relative="1" as="geometry">
            <mxPoint x="530.9999999999998" y="-923" as="sourcePoint" />
            <mxPoint x="629.5900000000001" y="-673.0000000000002" as="targetPoint" />
            <Array as="points">
              <mxPoint x="550" y="-923" />
              <mxPoint x="550" y="-673" />
            </Array>
          </mxGeometry>
        </mxCell>
        <mxCell id="PosuNlRDcicZqqVFlq28-13" value="FK" style="edgeLabel;html=1;align=center;verticalAlign=middle;resizable=0;points=[];fontSize=27;" vertex="1" connectable="0" parent="PosuNlRDcicZqqVFlq28-11">
          <mxGeometry x="0.6417" relative="1" as="geometry">
            <mxPoint x="-6" as="offset" />
          </mxGeometry>
        </mxCell>
      </root>
    </mxGraphModel>
  </diagram>
</mxfile>
